<mxfile host="app.diagrams.net" modified="2022-06-06T08:17:25.047Z" agent="5.0 (Windows NT 10.0; Win64; x64) AppleWebKit/537.36 (KHTML, like Gecko) Chrome/102.0.0.0 Safari/537.36" etag="Vz8EOY5JEYuo3wY_hg-y" version="19.0.0" type="github">
  <diagram id="Izmj4GPz0lvRZYQUVih_" name="Page-1">
    <mxGraphModel dx="1422" dy="705" grid="1" gridSize="10" guides="1" tooltips="1" connect="1" arrows="1" fold="1" page="1" pageScale="1" pageWidth="850" pageHeight="1100" math="0" shadow="0">
      <root>
        <mxCell id="0" />
        <mxCell id="1" parent="0" />
        <mxCell id="cWEXN-bF3hbhIx2hcadV-325" value="" style="rounded=0;whiteSpace=wrap;html=1;sketch=0;fontFamily=Helvetica;fontSize=11;fontColor=#330000;strokeColor=default;fillColor=none;gradientColor=none;dashed=1;" parent="1" vertex="1">
          <mxGeometry x="113.5" y="3723" width="636.5" height="940" as="geometry" />
        </mxCell>
        <mxCell id="cWEXN-bF3hbhIx2hcadV-372" value="" style="rounded=0;whiteSpace=wrap;html=1;sketch=0;fontFamily=Helvetica;fontSize=12;fontColor=#330000;strokeColor=default;strokeWidth=2;fillColor=none;gradientColor=none;dashed=1;" parent="1" vertex="1">
          <mxGeometry x="46" y="190" width="764" height="950" as="geometry" />
        </mxCell>
        <mxCell id="lOJe0pKSbFGqu7hqZR1B-4" style="edgeStyle=orthogonalEdgeStyle;rounded=0;orthogonalLoop=1;jettySize=auto;html=1;entryX=1;entryY=0.5;entryDx=0;entryDy=0;" edge="1" parent="1" source="cWEXN-bF3hbhIx2hcadV-362" target="lOJe0pKSbFGqu7hqZR1B-2">
          <mxGeometry relative="1" as="geometry">
            <mxPoint x="399" y="5350" as="targetPoint" />
          </mxGeometry>
        </mxCell>
        <mxCell id="cWEXN-bF3hbhIx2hcadV-362" value="" style="rounded=0;whiteSpace=wrap;html=1;sketch=0;fontFamily=Helvetica;fontSize=11;fontColor=#330000;strokeColor=default;fillColor=none;gradientColor=none;" parent="1" vertex="1">
          <mxGeometry x="64" y="4880" width="670" height="440" as="geometry" />
        </mxCell>
        <mxCell id="kzUMAcGg5ozdKPCntmQN-7" value="" style="rounded=0;whiteSpace=wrap;html=1;fillColor=none;strokeWidth=2;dashed=1;" parent="1" vertex="1">
          <mxGeometry x="60" y="2080" width="720" height="2630" as="geometry" />
        </mxCell>
        <mxCell id="cWEXN-bF3hbhIx2hcadV-129" value="" style="rounded=0;whiteSpace=wrap;html=1;dashed=1;sketch=0;fontFamily=Helvetica;fontSize=11;fontColor=#330000;strokeColor=default;fillColor=none;gradientColor=none;" parent="1" vertex="1">
          <mxGeometry x="90" y="2110" width="578" height="140" as="geometry" />
        </mxCell>
        <mxCell id="cWEXN-bF3hbhIx2hcadV-377" value="" style="rounded=0;whiteSpace=wrap;html=1;dashed=1;sketch=0;fontFamily=Helvetica;fontSize=12;fontColor=#330000;strokeColor=default;strokeWidth=1;fillColor=none;gradientColor=none;" parent="1" vertex="1">
          <mxGeometry x="80" y="2290" width="670" height="380" as="geometry" />
        </mxCell>
        <mxCell id="cWEXN-bF3hbhIx2hcadV-268" style="edgeStyle=orthogonalEdgeStyle;rounded=0;orthogonalLoop=1;jettySize=auto;html=1;fontFamily=Helvetica;fontSize=11;fontColor=#330000;" parent="1" source="cWEXN-bF3hbhIx2hcadV-212" edge="1">
          <mxGeometry relative="1" as="geometry">
            <mxPoint x="403" y="3230" as="targetPoint" />
          </mxGeometry>
        </mxCell>
        <mxCell id="cWEXN-bF3hbhIx2hcadV-212" value="" style="rounded=0;whiteSpace=wrap;html=1;dashed=1;sketch=0;fontFamily=Helvetica;fontSize=11;fontColor=#330000;strokeColor=default;fillColor=none;gradientColor=none;" parent="1" vertex="1">
          <mxGeometry x="58" y="2740" width="690" height="430" as="geometry" />
        </mxCell>
        <mxCell id="cWEXN-bF3hbhIx2hcadV-66" value="" style="rounded=0;whiteSpace=wrap;html=1;sketch=0;fontFamily=Helvetica;fontSize=11;fontColor=#330000;strokeColor=default;fillColor=none;gradientColor=none;dashed=1;strokeWidth=2;" parent="1" vertex="1">
          <mxGeometry x="100" y="1180" width="667" height="570" as="geometry" />
        </mxCell>
        <mxCell id="cWEXN-bF3hbhIx2hcadV-49" value="" style="rounded=0;whiteSpace=wrap;html=1;sketch=0;fontFamily=Helvetica;fontSize=11;fontColor=#330000;strokeColor=default;fillColor=none;gradientColor=none;direction=south;dashed=1;" parent="1" vertex="1">
          <mxGeometry x="326" y="340" width="444" height="720" as="geometry" />
        </mxCell>
        <mxCell id="cWEXN-bF3hbhIx2hcadV-2" value="&lt;font style=&quot;font-size: 11px;&quot;&gt;Start&lt;/font&gt;" style="text;html=1;align=center;verticalAlign=middle;resizable=0;points=[];autosize=1;strokeColor=none;fillColor=none;" parent="1" vertex="1">
          <mxGeometry x="14" y="152" width="40" height="20" as="geometry" />
        </mxCell>
        <mxCell id="cWEXN-bF3hbhIx2hcadV-363" style="edgeStyle=orthogonalEdgeStyle;rounded=0;orthogonalLoop=1;jettySize=auto;html=1;entryX=0.5;entryY=0;entryDx=0;entryDy=0;fontFamily=Helvetica;fontSize=12;fontColor=#330000;" parent="1" source="cWEXN-bF3hbhIx2hcadV-3" target="cWEXN-bF3hbhIx2hcadV-5" edge="1">
          <mxGeometry relative="1" as="geometry" />
        </mxCell>
        <mxCell id="cWEXN-bF3hbhIx2hcadV-3" value="" style="shape=image;html=1;verticalAlign=top;verticalLabelPosition=bottom;labelBackgroundColor=#ffffff;imageAspect=0;aspect=fixed;image=https://cdn4.iconfinder.com/data/icons/ios-web-user-interface-multi-circle-flat-vol-2/512/Arrow_film_movie_play_player_start_video-128.png;fontSize=11;" parent="1" vertex="1">
          <mxGeometry x="11" y="103" width="50" height="50" as="geometry" />
        </mxCell>
        <mxCell id="cWEXN-bF3hbhIx2hcadV-4" value="&lt;font color=&quot;#330000&quot; style=&quot;font-size: 24px;&quot;&gt;&lt;b style=&quot;&quot;&gt;Global Security Verification -&amp;nbsp; Audit&amp;nbsp;&lt;/b&gt;&lt;/font&gt;" style="text;html=1;align=center;verticalAlign=middle;resizable=0;points=[];autosize=1;strokeColor=none;fillColor=none;fontSize=11;" parent="1" vertex="1">
          <mxGeometry x="215" y="60" width="420" height="20" as="geometry" />
        </mxCell>
        <mxCell id="cWEXN-bF3hbhIx2hcadV-11" style="edgeStyle=orthogonalEdgeStyle;rounded=0;orthogonalLoop=1;jettySize=auto;html=1;exitX=1;exitY=0.5;exitDx=0;exitDy=0;fontSize=11;fontColor=#330000;" parent="1" source="cWEXN-bF3hbhIx2hcadV-5" edge="1">
          <mxGeometry relative="1" as="geometry">
            <mxPoint x="268" y="249" as="targetPoint" />
          </mxGeometry>
        </mxCell>
        <mxCell id="cWEXN-bF3hbhIx2hcadV-5" value="" style="shape=image;html=1;verticalAlign=top;verticalLabelPosition=bottom;labelBackgroundColor=#ffffff;imageAspect=0;aspect=fixed;image=https://cdn3.iconfinder.com/data/icons/flat-actions-icons-9/792/Close_Icon_Circle-128.png;fontSize=24;fontColor=#330000;" parent="1" vertex="1">
          <mxGeometry x="118" y="220" width="58" height="58" as="geometry" />
        </mxCell>
        <mxCell id="cWEXN-bF3hbhIx2hcadV-8" value="Close Application -&amp;nbsp;&lt;br&gt;&lt;b&gt;Chrome , Excel&lt;/b&gt;" style="text;html=1;align=center;verticalAlign=middle;resizable=0;points=[];autosize=1;strokeColor=default;fillColor=none;fontSize=11;fontColor=#330000;" parent="1" vertex="1">
          <mxGeometry x="88" y="278" width="110" height="30" as="geometry" />
        </mxCell>
        <mxCell id="zL2r4gQqmG1PpCrWWyj4-15" value="" style="edgeStyle=orthogonalEdgeStyle;rounded=0;orthogonalLoop=1;jettySize=auto;html=1;" parent="1" source="cWEXN-bF3hbhIx2hcadV-9" target="zL2r4gQqmG1PpCrWWyj4-13" edge="1">
          <mxGeometry relative="1" as="geometry" />
        </mxCell>
        <mxCell id="cWEXN-bF3hbhIx2hcadV-9" value="" style="shape=image;html=1;verticalAlign=top;verticalLabelPosition=bottom;labelBackgroundColor=#ffffff;imageAspect=0;aspect=fixed;image=https://cdn0.iconfinder.com/data/icons/business-startup-10/50/8-128.png;fontSize=11;fontColor=#330000;strokeColor=default;" parent="1" vertex="1">
          <mxGeometry x="278" y="208" width="79" height="79" as="geometry" />
        </mxCell>
        <mxCell id="cWEXN-bF3hbhIx2hcadV-10" value="Read the Configuration &lt;br&gt;File" style="text;html=1;align=center;verticalAlign=middle;resizable=0;points=[];autosize=1;strokeColor=default;fillColor=none;fontSize=11;fontColor=#330000;" parent="1" vertex="1">
          <mxGeometry x="248" y="288" width="130" height="30" as="geometry" />
        </mxCell>
        <mxCell id="cWEXN-bF3hbhIx2hcadV-14" value="&lt;b&gt;Initialize Application&lt;/b&gt;" style="text;html=1;align=center;verticalAlign=middle;resizable=0;points=[];autosize=1;strokeColor=none;fillColor=none;fontSize=11;fontFamily=Helvetica;fontColor=#330000;" parent="1" vertex="1">
          <mxGeometry x="557" y="320" width="120" height="20" as="geometry" />
        </mxCell>
        <mxCell id="cWEXN-bF3hbhIx2hcadV-19" style="edgeStyle=orthogonalEdgeStyle;rounded=0;orthogonalLoop=1;jettySize=auto;html=1;fontFamily=Helvetica;fontSize=11;fontColor=#330000;" parent="1" source="cWEXN-bF3hbhIx2hcadV-15" target="cWEXN-bF3hbhIx2hcadV-18" edge="1">
          <mxGeometry relative="1" as="geometry" />
        </mxCell>
        <mxCell id="cWEXN-bF3hbhIx2hcadV-15" value="" style="dashed=0;outlineConnect=0;html=1;align=center;labelPosition=center;verticalLabelPosition=bottom;verticalAlign=top;shape=mxgraph.weblogos.chrome;rounded=0;sketch=0;fontFamily=Helvetica;fontSize=11;fontColor=#330000;strokeColor=default;fillColor=none;gradientColor=none;" parent="1" vertex="1">
          <mxGeometry x="533" y="362" width="54" height="50" as="geometry" />
        </mxCell>
        <mxCell id="cWEXN-bF3hbhIx2hcadV-16" value="Open URL -&lt;br&gt;&amp;nbsp;https://ralphlaurenpp-ps.ngcxpress.com" style="text;html=1;align=center;verticalAlign=middle;resizable=0;points=[];autosize=1;strokeColor=none;fillColor=none;fontSize=11;fontFamily=Helvetica;fontColor=#330000;" parent="1" vertex="1">
          <mxGeometry x="343" y="390" width="210" height="30" as="geometry" />
        </mxCell>
        <mxCell id="cWEXN-bF3hbhIx2hcadV-22" style="edgeStyle=orthogonalEdgeStyle;rounded=0;orthogonalLoop=1;jettySize=auto;html=1;entryX=0.5;entryY=0;entryDx=0;entryDy=0;fontFamily=Helvetica;fontSize=11;fontColor=#330000;" parent="1" source="cWEXN-bF3hbhIx2hcadV-18" target="cWEXN-bF3hbhIx2hcadV-21" edge="1">
          <mxGeometry relative="1" as="geometry" />
        </mxCell>
        <mxCell id="cWEXN-bF3hbhIx2hcadV-18" value="" style="shape=image;html=1;verticalAlign=top;verticalLabelPosition=bottom;labelBackgroundColor=#ffffff;imageAspect=0;aspect=fixed;image=https://cdn4.iconfinder.com/data/icons/minicons-3/640/fullscreen_black-128.png;rounded=0;sketch=0;fontFamily=Helvetica;fontSize=11;fontColor=#330000;strokeColor=default;fillColor=none;gradientColor=none;" parent="1" vertex="1">
          <mxGeometry x="536" y="440" width="48" height="48" as="geometry" />
        </mxCell>
        <mxCell id="cWEXN-bF3hbhIx2hcadV-20" value="Maximize Browser" style="text;html=1;align=center;verticalAlign=middle;resizable=0;points=[];autosize=1;strokeColor=none;fillColor=none;fontSize=11;fontFamily=Helvetica;fontColor=#330000;" parent="1" vertex="1">
          <mxGeometry x="583" y="468" width="110" height="20" as="geometry" />
        </mxCell>
        <mxCell id="cWEXN-bF3hbhIx2hcadV-26" style="edgeStyle=orthogonalEdgeStyle;rounded=0;orthogonalLoop=1;jettySize=auto;html=1;entryX=0.5;entryY=0;entryDx=0;entryDy=0;entryPerimeter=0;fontFamily=Helvetica;fontSize=11;fontColor=#330000;" parent="1" source="cWEXN-bF3hbhIx2hcadV-21" target="cWEXN-bF3hbhIx2hcadV-24" edge="1">
          <mxGeometry relative="1" as="geometry" />
        </mxCell>
        <mxCell id="cWEXN-bF3hbhIx2hcadV-40" value="Yes" style="edgeLabel;html=1;align=center;verticalAlign=middle;resizable=0;points=[];fontSize=11;fontFamily=Helvetica;fontColor=#330000;" parent="cWEXN-bF3hbhIx2hcadV-26" vertex="1" connectable="0">
          <mxGeometry x="0.046" y="-1" relative="1" as="geometry">
            <mxPoint as="offset" />
          </mxGeometry>
        </mxCell>
        <mxCell id="cWEXN-bF3hbhIx2hcadV-45" style="edgeStyle=orthogonalEdgeStyle;rounded=0;orthogonalLoop=1;jettySize=auto;html=1;entryX=0.5;entryY=0;entryDx=0;entryDy=0;fontFamily=Helvetica;fontSize=11;fontColor=#330000;" parent="1" source="cWEXN-bF3hbhIx2hcadV-21" target="cWEXN-bF3hbhIx2hcadV-41" edge="1">
          <mxGeometry relative="1" as="geometry" />
        </mxCell>
        <mxCell id="cWEXN-bF3hbhIx2hcadV-51" value="No" style="edgeLabel;html=1;align=center;verticalAlign=middle;resizable=0;points=[];fontSize=11;fontFamily=Helvetica;fontColor=#330000;" parent="cWEXN-bF3hbhIx2hcadV-45" vertex="1" connectable="0">
          <mxGeometry x="-0.6776" y="1" relative="1" as="geometry">
            <mxPoint as="offset" />
          </mxGeometry>
        </mxCell>
        <mxCell id="cWEXN-bF3hbhIx2hcadV-21" value="" style="shape=image;html=1;verticalAlign=top;verticalLabelPosition=bottom;labelBackgroundColor=#ffffff;imageAspect=0;aspect=fixed;image=https://cdn1.iconfinder.com/data/icons/Futurosoft%20Icons%200.5.2/128x128/apps/Login-Manager.png;rounded=0;sketch=0;fontFamily=Helvetica;fontSize=11;fontColor=#330000;strokeColor=default;fillColor=none;gradientColor=none;" parent="1" vertex="1">
          <mxGeometry x="530" y="533" width="60" height="60" as="geometry" />
        </mxCell>
        <mxCell id="cWEXN-bF3hbhIx2hcadV-23" value="Login Page &lt;br&gt;Exists" style="text;html=1;align=center;verticalAlign=middle;resizable=0;points=[];autosize=1;strokeColor=none;fillColor=none;fontSize=11;fontFamily=Helvetica;fontColor=#330000;" parent="1" vertex="1">
          <mxGeometry x="520" y="593" width="70" height="30" as="geometry" />
        </mxCell>
        <mxCell id="cWEXN-bF3hbhIx2hcadV-28" style="edgeStyle=orthogonalEdgeStyle;rounded=0;orthogonalLoop=1;jettySize=auto;html=1;entryX=0.5;entryY=0;entryDx=0;entryDy=0;fontFamily=Helvetica;fontSize=11;fontColor=#330000;" parent="1" source="cWEXN-bF3hbhIx2hcadV-24" target="cWEXN-bF3hbhIx2hcadV-25" edge="1">
          <mxGeometry relative="1" as="geometry" />
        </mxCell>
        <mxCell id="cWEXN-bF3hbhIx2hcadV-24" value="" style="verticalLabelPosition=bottom;html=1;verticalAlign=top;align=center;strokeColor=none;fillColor=#00BEF2;shape=mxgraph.azure.user;rounded=0;sketch=0;fontFamily=Helvetica;fontSize=11;fontColor=#330000;" parent="1" vertex="1">
          <mxGeometry x="368" y="590" width="30" height="30" as="geometry" />
        </mxCell>
        <mxCell id="cWEXN-bF3hbhIx2hcadV-32" style="edgeStyle=orthogonalEdgeStyle;rounded=0;orthogonalLoop=1;jettySize=auto;html=1;entryX=0.5;entryY=0;entryDx=0;entryDy=0;fontFamily=Helvetica;fontSize=11;fontColor=#330000;" parent="1" source="cWEXN-bF3hbhIx2hcadV-25" target="cWEXN-bF3hbhIx2hcadV-30" edge="1">
          <mxGeometry relative="1" as="geometry" />
        </mxCell>
        <mxCell id="cWEXN-bF3hbhIx2hcadV-25" value="" style="shape=image;html=1;verticalAlign=top;verticalLabelPosition=bottom;labelBackgroundColor=#ffffff;imageAspect=0;aspect=fixed;image=https://cdn0.iconfinder.com/data/icons/phosphor-regular-vol-3/256/password-128.png;rounded=0;sketch=0;fontFamily=Helvetica;fontSize=11;fontColor=#330000;strokeColor=default;fillColor=none;gradientColor=none;" parent="1" vertex="1">
          <mxGeometry x="368" y="657" width="30" height="30" as="geometry" />
        </mxCell>
        <mxCell id="cWEXN-bF3hbhIx2hcadV-27" value="Enter&lt;br&gt;UserName" style="text;html=1;align=center;verticalAlign=middle;resizable=0;points=[];autosize=1;strokeColor=none;fillColor=none;fontSize=11;fontFamily=Helvetica;fontColor=#330000;" parent="1" vertex="1">
          <mxGeometry x="398" y="593" width="70" height="30" as="geometry" />
        </mxCell>
        <mxCell id="cWEXN-bF3hbhIx2hcadV-29" value="Enter &lt;br&gt;Password" style="text;html=1;align=center;verticalAlign=middle;resizable=0;points=[];autosize=1;strokeColor=none;fillColor=none;fontSize=11;fontFamily=Helvetica;fontColor=#330000;" parent="1" vertex="1">
          <mxGeometry x="398" y="650" width="60" height="30" as="geometry" />
        </mxCell>
        <mxCell id="cWEXN-bF3hbhIx2hcadV-39" style="edgeStyle=orthogonalEdgeStyle;rounded=0;orthogonalLoop=1;jettySize=auto;html=1;entryX=0.5;entryY=0;entryDx=0;entryDy=0;fontFamily=Helvetica;fontSize=11;fontColor=#330000;" parent="1" source="cWEXN-bF3hbhIx2hcadV-30" target="cWEXN-bF3hbhIx2hcadV-36" edge="1">
          <mxGeometry relative="1" as="geometry">
            <Array as="points">
              <mxPoint x="383" y="780" />
              <mxPoint x="567" y="780" />
            </Array>
          </mxGeometry>
        </mxCell>
        <mxCell id="cWEXN-bF3hbhIx2hcadV-30" value="" style="shape=image;html=1;verticalAlign=top;verticalLabelPosition=bottom;labelBackgroundColor=#ffffff;imageAspect=0;aspect=fixed;image=https://cdn3.iconfinder.com/data/icons/arrows-397/48/arrow_login-128.png;rounded=0;sketch=0;fontFamily=Helvetica;fontSize=11;fontColor=#330000;strokeColor=default;fillColor=none;gradientColor=none;" parent="1" vertex="1">
          <mxGeometry x="363.5" y="722" width="39" height="39" as="geometry" />
        </mxCell>
        <mxCell id="cWEXN-bF3hbhIx2hcadV-33" value="Click &lt;br&gt;Login" style="text;html=1;align=center;verticalAlign=middle;resizable=0;points=[];autosize=1;strokeColor=none;fillColor=none;fontSize=11;fontFamily=Helvetica;fontColor=#330000;" parent="1" vertex="1">
          <mxGeometry x="408" y="726.5" width="40" height="30" as="geometry" />
        </mxCell>
        <mxCell id="cWEXN-bF3hbhIx2hcadV-42" style="edgeStyle=orthogonalEdgeStyle;rounded=0;orthogonalLoop=1;jettySize=auto;html=1;fontFamily=Helvetica;fontSize=11;fontColor=#330000;" parent="1" source="cWEXN-bF3hbhIx2hcadV-36" edge="1">
          <mxGeometry relative="1" as="geometry">
            <mxPoint x="218" y="990" as="targetPoint" />
          </mxGeometry>
        </mxCell>
        <mxCell id="cWEXN-bF3hbhIx2hcadV-43" style="edgeStyle=orthogonalEdgeStyle;rounded=0;orthogonalLoop=1;jettySize=auto;html=1;entryX=0.5;entryY=0;entryDx=0;entryDy=0;fontFamily=Helvetica;fontSize=11;fontColor=#330000;" parent="1" source="cWEXN-bF3hbhIx2hcadV-36" target="cWEXN-bF3hbhIx2hcadV-41" edge="1">
          <mxGeometry relative="1" as="geometry" />
        </mxCell>
        <mxCell id="cWEXN-bF3hbhIx2hcadV-36" value="" style="shape=image;html=1;verticalAlign=top;verticalLabelPosition=bottom;labelBackgroundColor=#ffffff;imageAspect=0;aspect=fixed;image=https://cdn0.iconfinder.com/data/icons/basic-e-commerce-line/48/Package_box_success-128.png;rounded=0;sketch=0;fontFamily=Helvetica;fontSize=11;fontColor=#330000;strokeColor=default;fillColor=none;gradientColor=none;" parent="1" vertex="1">
          <mxGeometry x="530" y="810" width="74" height="74" as="geometry" />
        </mxCell>
        <mxCell id="cWEXN-bF3hbhIx2hcadV-38" value="Login &lt;br&gt;Success" style="text;html=1;align=center;verticalAlign=middle;resizable=0;points=[];autosize=1;strokeColor=none;fillColor=none;fontSize=11;fontFamily=Helvetica;fontColor=#330000;" parent="1" vertex="1">
          <mxGeometry x="537" y="880" width="60" height="30" as="geometry" />
        </mxCell>
        <mxCell id="cWEXN-bF3hbhIx2hcadV-57" style="edgeStyle=orthogonalEdgeStyle;rounded=0;orthogonalLoop=1;jettySize=auto;html=1;fontFamily=Helvetica;fontSize=11;fontColor=#330000;" parent="1" source="cWEXN-bF3hbhIx2hcadV-41" target="cWEXN-bF3hbhIx2hcadV-55" edge="1">
          <mxGeometry relative="1" as="geometry">
            <Array as="points">
              <mxPoint x="703" y="1030" />
            </Array>
          </mxGeometry>
        </mxCell>
        <mxCell id="cWEXN-bF3hbhIx2hcadV-64" value="Retry Failed" style="edgeLabel;html=1;align=center;verticalAlign=middle;resizable=0;points=[];fontSize=11;fontFamily=Helvetica;fontColor=#330000;" parent="cWEXN-bF3hbhIx2hcadV-57" vertex="1" connectable="0">
          <mxGeometry x="-0.1659" y="1" relative="1" as="geometry">
            <mxPoint as="offset" />
          </mxGeometry>
        </mxCell>
        <mxCell id="cWEXN-bF3hbhIx2hcadV-41" value="" style="shape=image;html=1;verticalAlign=top;verticalLabelPosition=bottom;labelBackgroundColor=#ffffff;imageAspect=0;aspect=fixed;image=https://cdn4.iconfinder.com/data/icons/flat-business-3/512/Flat_business-9-128.png;rounded=0;sketch=0;fontFamily=Helvetica;fontSize=11;fontColor=#330000;strokeColor=default;fillColor=none;gradientColor=none;" parent="1" vertex="1">
          <mxGeometry x="648" y="909" width="110" height="110" as="geometry" />
        </mxCell>
        <mxCell id="cWEXN-bF3hbhIx2hcadV-46" style="edgeStyle=orthogonalEdgeStyle;rounded=0;orthogonalLoop=1;jettySize=auto;html=1;entryX=0.517;entryY=1.333;entryDx=0;entryDy=0;entryPerimeter=0;fontFamily=Helvetica;fontSize=11;fontColor=#330000;" parent="1" source="cWEXN-bF3hbhIx2hcadV-44" target="cWEXN-bF3hbhIx2hcadV-38" edge="1">
          <mxGeometry relative="1" as="geometry" />
        </mxCell>
        <mxCell id="cWEXN-bF3hbhIx2hcadV-48" value="Retry Success" style="edgeLabel;html=1;align=center;verticalAlign=middle;resizable=0;points=[];fontSize=11;fontFamily=Helvetica;fontColor=#330000;" parent="cWEXN-bF3hbhIx2hcadV-46" vertex="1" connectable="0">
          <mxGeometry x="-0.1613" y="-2" relative="1" as="geometry">
            <mxPoint as="offset" />
          </mxGeometry>
        </mxCell>
        <mxCell id="cWEXN-bF3hbhIx2hcadV-44" value="Close the Browser&lt;br&gt;Retry 3 Times" style="text;html=1;align=center;verticalAlign=middle;resizable=0;points=[];autosize=1;strokeColor=none;fillColor=none;fontSize=11;fontFamily=Helvetica;fontColor=#330000;" parent="1" vertex="1">
          <mxGeometry x="648" y="949" width="110" height="30" as="geometry" />
        </mxCell>
        <mxCell id="cWEXN-bF3hbhIx2hcadV-60" style="edgeStyle=orthogonalEdgeStyle;rounded=0;orthogonalLoop=1;jettySize=auto;html=1;fontFamily=Helvetica;fontSize=11;fontColor=#330000;" parent="1" source="cWEXN-bF3hbhIx2hcadV-55" edge="1">
          <mxGeometry relative="1" as="geometry">
            <mxPoint x="10" y="5330" as="targetPoint" />
            <Array as="points">
              <mxPoint x="10" y="1025" />
            </Array>
          </mxGeometry>
        </mxCell>
        <mxCell id="cWEXN-bF3hbhIx2hcadV-63" style="edgeStyle=orthogonalEdgeStyle;rounded=0;orthogonalLoop=1;jettySize=auto;html=1;fontFamily=Helvetica;fontSize=11;fontColor=#330000;" parent="1" edge="1">
          <mxGeometry relative="1" as="geometry">
            <mxPoint x="228" y="1210" as="targetPoint" />
            <mxPoint x="228" y="1068" as="sourcePoint" />
          </mxGeometry>
        </mxCell>
        <mxCell id="cWEXN-bF3hbhIx2hcadV-65" value="No" style="edgeLabel;html=1;align=center;verticalAlign=middle;resizable=0;points=[];fontSize=11;fontFamily=Helvetica;fontColor=#330000;" parent="cWEXN-bF3hbhIx2hcadV-63" vertex="1" connectable="0">
          <mxGeometry x="-0.169" relative="1" as="geometry">
            <mxPoint as="offset" />
          </mxGeometry>
        </mxCell>
        <mxCell id="cWEXN-bF3hbhIx2hcadV-55" value="" style="image;html=1;image=img/lib/clip_art/computers/Secure_System_128x128.png;rounded=0;dashed=1;sketch=0;fontFamily=Helvetica;fontSize=11;fontColor=#330000;strokeColor=default;fillColor=none;gradientColor=none;" parent="1" vertex="1">
          <mxGeometry x="188" y="985" width="80" height="80" as="geometry" />
        </mxCell>
        <mxCell id="cWEXN-bF3hbhIx2hcadV-59" value="Any Exception &lt;br&gt;Occured" style="text;html=1;align=center;verticalAlign=middle;resizable=0;points=[];autosize=1;strokeColor=none;fillColor=none;fontSize=11;fontFamily=Helvetica;fontColor=#330000;" parent="1" vertex="1">
          <mxGeometry x="223" y="1071" width="90" height="30" as="geometry" />
        </mxCell>
        <mxCell id="cWEXN-bF3hbhIx2hcadV-67" value="&lt;b&gt;Extract the Input Data From VMS Portal&lt;/b&gt;" style="text;html=1;align=center;verticalAlign=middle;resizable=0;points=[];autosize=1;strokeColor=none;fillColor=none;fontSize=11;fontFamily=Helvetica;fontColor=#330000;" parent="1" vertex="1">
          <mxGeometry x="423.5" y="1180" width="220" height="20" as="geometry" />
        </mxCell>
        <mxCell id="cWEXN-bF3hbhIx2hcadV-71" style="edgeStyle=orthogonalEdgeStyle;rounded=0;orthogonalLoop=1;jettySize=auto;html=1;entryX=0;entryY=0.5;entryDx=0;entryDy=0;entryPerimeter=0;fontFamily=Helvetica;fontSize=11;fontColor=#330000;" parent="1" source="cWEXN-bF3hbhIx2hcadV-68" target="cWEXN-bF3hbhIx2hcadV-70" edge="1">
          <mxGeometry relative="1" as="geometry" />
        </mxCell>
        <mxCell id="cWEXN-bF3hbhIx2hcadV-68" value="" style="shape=image;html=1;verticalAlign=top;verticalLabelPosition=bottom;labelBackgroundColor=#ffffff;imageAspect=0;aspect=fixed;image=https://cdn4.iconfinder.com/data/icons/ionicons/512/icon-ios7-navigate-128.png;rounded=0;dashed=1;sketch=0;fontFamily=Helvetica;fontSize=11;fontColor=#330000;strokeColor=default;fillColor=none;gradientColor=none;" parent="1" vertex="1">
          <mxGeometry x="200" y="1210" width="56" height="56" as="geometry" />
        </mxCell>
        <mxCell id="cWEXN-bF3hbhIx2hcadV-69" value="Navigate to&amp;nbsp; VMS &lt;br&gt;Portal" style="text;html=1;align=center;verticalAlign=middle;resizable=0;points=[];autosize=1;strokeColor=none;fillColor=none;fontSize=11;fontFamily=Helvetica;fontColor=#330000;" parent="1" vertex="1">
          <mxGeometry x="176" y="1266" width="100" height="30" as="geometry" />
        </mxCell>
        <mxCell id="cWEXN-bF3hbhIx2hcadV-75" style="edgeStyle=orthogonalEdgeStyle;rounded=0;orthogonalLoop=1;jettySize=auto;html=1;entryX=0;entryY=0.5;entryDx=0;entryDy=0;fontFamily=Helvetica;fontSize=11;fontColor=#330000;" parent="1" source="cWEXN-bF3hbhIx2hcadV-70" target="cWEXN-bF3hbhIx2hcadV-74" edge="1">
          <mxGeometry relative="1" as="geometry" />
        </mxCell>
        <mxCell id="cWEXN-bF3hbhIx2hcadV-70" value="" style="sketch=0;aspect=fixed;pointerEvents=1;shadow=0;dashed=0;html=1;strokeColor=none;labelPosition=center;verticalLabelPosition=bottom;verticalAlign=top;align=center;fillColor=#00188D;shape=mxgraph.mscae.enterprise.folder;rounded=0;fontFamily=Helvetica;fontSize=11;fontColor=#330000;" parent="1" vertex="1">
          <mxGeometry x="358" y="1217" width="50" height="43" as="geometry" />
        </mxCell>
        <mxCell id="cWEXN-bF3hbhIx2hcadV-72" value="Click On &lt;b&gt;MODA&lt;/b&gt;&amp;nbsp;&lt;br&gt;Folder" style="text;html=1;align=center;verticalAlign=middle;resizable=0;points=[];autosize=1;strokeColor=none;fillColor=none;fontSize=11;fontFamily=Helvetica;fontColor=#330000;" parent="1" vertex="1">
          <mxGeometry x="333" y="1266" width="100" height="30" as="geometry" />
        </mxCell>
        <mxCell id="cWEXN-bF3hbhIx2hcadV-78" style="edgeStyle=orthogonalEdgeStyle;rounded=0;orthogonalLoop=1;jettySize=auto;html=1;fontFamily=Helvetica;fontSize=11;fontColor=#330000;" parent="1" source="cWEXN-bF3hbhIx2hcadV-74" edge="1">
          <mxGeometry relative="1" as="geometry">
            <mxPoint x="618" y="1239" as="targetPoint" />
          </mxGeometry>
        </mxCell>
        <mxCell id="cWEXN-bF3hbhIx2hcadV-74" value="" style="shape=image;html=1;verticalAlign=top;verticalLabelPosition=bottom;labelBackgroundColor=#ffffff;imageAspect=0;aspect=fixed;image=https://cdn1.iconfinder.com/data/icons/hawcons/32/700015-icon-27-one-finger-click-128.png;rounded=0;dashed=1;sketch=0;fontFamily=Helvetica;fontSize=11;fontColor=#330000;strokeColor=default;fillColor=none;gradientColor=none;" parent="1" vertex="1">
          <mxGeometry x="499" y="1210" width="58" height="58" as="geometry" />
        </mxCell>
        <mxCell id="cWEXN-bF3hbhIx2hcadV-76" value="Click&amp;nbsp; On GSV&lt;br&gt;View" style="text;html=1;align=center;verticalAlign=middle;resizable=0;points=[];autosize=1;strokeColor=none;fillColor=none;fontSize=11;fontFamily=Helvetica;fontColor=#330000;" parent="1" vertex="1">
          <mxGeometry x="483" y="1268" width="90" height="30" as="geometry" />
        </mxCell>
        <mxCell id="cWEXN-bF3hbhIx2hcadV-88" style="edgeStyle=orthogonalEdgeStyle;rounded=0;orthogonalLoop=1;jettySize=auto;html=1;fontFamily=Helvetica;fontSize=11;fontColor=#330000;" parent="1" source="cWEXN-bF3hbhIx2hcadV-77" edge="1">
          <mxGeometry relative="1" as="geometry">
            <mxPoint x="649" y="1400" as="targetPoint" />
          </mxGeometry>
        </mxCell>
        <mxCell id="cWEXN-bF3hbhIx2hcadV-77" value="" style="sketch=0;aspect=fixed;pointerEvents=1;shadow=0;dashed=0;html=1;strokeColor=none;labelPosition=center;verticalLabelPosition=bottom;verticalAlign=top;align=center;fillColor=#00188D;shape=mxgraph.mscae.enterprise.filter;rounded=0;fontFamily=Helvetica;fontSize=11;fontColor=#330000;" parent="1" vertex="1">
          <mxGeometry x="624" y="1222" width="50" height="45" as="geometry" />
        </mxCell>
        <mxCell id="cWEXN-bF3hbhIx2hcadV-79" value="Filter Created On&amp;nbsp; &lt;br&gt;By&lt;br&gt;&amp;nbsp;Current Date - 1" style="text;html=1;align=center;verticalAlign=middle;resizable=0;points=[];autosize=1;strokeColor=none;fillColor=none;fontSize=11;fontFamily=Helvetica;fontColor=#330000;" parent="1" vertex="1">
          <mxGeometry x="668" y="1230" width="100" height="40" as="geometry" />
        </mxCell>
        <mxCell id="cWEXN-bF3hbhIx2hcadV-89" style="edgeStyle=orthogonalEdgeStyle;rounded=0;orthogonalLoop=1;jettySize=auto;html=1;fontFamily=Helvetica;fontSize=11;fontColor=#330000;entryX=0.5;entryY=0;entryDx=0;entryDy=0;" parent="1" edge="1">
          <mxGeometry relative="1" as="geometry">
            <mxPoint x="22" y="5330" as="targetPoint" />
            <mxPoint x="572" y="1459" as="sourcePoint" />
          </mxGeometry>
        </mxCell>
        <mxCell id="cWEXN-bF3hbhIx2hcadV-91" style="edgeStyle=orthogonalEdgeStyle;rounded=0;orthogonalLoop=1;jettySize=auto;html=1;fontFamily=Helvetica;fontSize=11;fontColor=#330000;" parent="1" source="cWEXN-bF3hbhIx2hcadV-84" target="cWEXN-bF3hbhIx2hcadV-95" edge="1">
          <mxGeometry relative="1" as="geometry">
            <mxPoint x="633" y="1630" as="targetPoint" />
            <Array as="points">
              <mxPoint x="633" y="1630" />
            </Array>
          </mxGeometry>
        </mxCell>
        <mxCell id="cWEXN-bF3hbhIx2hcadV-92" value="Yes" style="edgeLabel;html=1;align=center;verticalAlign=middle;resizable=0;points=[];fontSize=11;fontFamily=Helvetica;fontColor=#330000;" parent="cWEXN-bF3hbhIx2hcadV-91" vertex="1" connectable="0">
          <mxGeometry x="-0.1803" y="-1" relative="1" as="geometry">
            <mxPoint as="offset" />
          </mxGeometry>
        </mxCell>
        <mxCell id="cWEXN-bF3hbhIx2hcadV-84" value="" style="shape=mxgraph.signs.healthcare.medical_records;html=1;pointerEvents=1;fillColor=#000000;strokeColor=none;verticalLabelPosition=bottom;verticalAlign=top;align=center;rounded=0;dashed=1;sketch=0;fontFamily=Helvetica;fontSize=11;fontColor=#330000;" parent="1" vertex="1">
          <mxGeometry x="584" y="1410" width="98" height="98" as="geometry" />
        </mxCell>
        <mxCell id="cWEXN-bF3hbhIx2hcadV-86" value="Any Record Exists &lt;br&gt;for &lt;br&gt;Provider Code" style="text;html=1;align=center;verticalAlign=middle;resizable=0;points=[];autosize=1;strokeColor=none;fillColor=none;fontSize=11;fontFamily=Helvetica;fontColor=#330000;" parent="1" vertex="1">
          <mxGeometry x="647" y="1510" width="110" height="40" as="geometry" />
        </mxCell>
        <mxCell id="cWEXN-bF3hbhIx2hcadV-97" style="edgeStyle=orthogonalEdgeStyle;rounded=0;orthogonalLoop=1;jettySize=auto;html=1;fontFamily=Helvetica;fontSize=11;fontColor=#330000;" parent="1" source="cWEXN-bF3hbhIx2hcadV-95" edge="1">
          <mxGeometry relative="1" as="geometry">
            <mxPoint x="338" y="1644" as="targetPoint" />
          </mxGeometry>
        </mxCell>
        <mxCell id="cWEXN-bF3hbhIx2hcadV-95" value="&lt;font style=&quot;font-size: 11px;&quot;&gt;Store the Provide Code&lt;br&gt;Provider Name in DataTable&lt;/font&gt;" style="sketch=0;outlineConnect=0;fontColor=#232F3E;gradientColor=none;strokeColor=#ffffff;fillColor=#232F3E;dashed=0;verticalLabelPosition=middle;verticalAlign=bottom;align=center;html=1;whiteSpace=wrap;fontSize=10;fontStyle=1;spacing=3;shape=mxgraph.aws4.productIcon;prIcon=mxgraph.aws4.elastic_block_store;rounded=0;fontFamily=Helvetica;" parent="1" vertex="1">
          <mxGeometry x="515" y="1568" width="93" height="152" as="geometry" />
        </mxCell>
        <mxCell id="cWEXN-bF3hbhIx2hcadV-107" style="edgeStyle=orthogonalEdgeStyle;rounded=0;orthogonalLoop=1;jettySize=auto;html=1;entryX=0;entryY=0.75;entryDx=0;entryDy=0;fontFamily=Helvetica;fontSize=11;fontColor=#330000;" parent="1" source="cWEXN-bF3hbhIx2hcadV-96" target="cWEXN-bF3hbhIx2hcadV-100" edge="1">
          <mxGeometry relative="1" as="geometry" />
        </mxCell>
        <mxCell id="cWEXN-bF3hbhIx2hcadV-96" value="" style="image;html=1;image=img/lib/clip_art/computers/Database_Add_128x128.png;rounded=0;dashed=1;sketch=0;fontFamily=Helvetica;fontSize=11;fontColor=#330000;strokeColor=default;fillColor=none;gradientColor=none;" parent="1" vertex="1">
          <mxGeometry x="268" y="1610" width="80" height="80" as="geometry" />
        </mxCell>
        <mxCell id="cWEXN-bF3hbhIx2hcadV-98" value="Add All the Records to the Queue - &lt;br&gt;&lt;b&gt;RL_GSVAudit_Queue&lt;/b&gt;" style="text;html=1;align=center;verticalAlign=middle;resizable=0;points=[];autosize=1;strokeColor=none;fillColor=none;fontSize=11;fontFamily=Helvetica;fontColor=#330000;" parent="1" vertex="1">
          <mxGeometry x="200" y="1700" width="190" height="30" as="geometry" />
        </mxCell>
        <mxCell id="cWEXN-bF3hbhIx2hcadV-108" style="edgeStyle=orthogonalEdgeStyle;rounded=0;orthogonalLoop=1;jettySize=auto;html=1;fontFamily=Helvetica;fontSize=11;fontColor=#330000;" parent="1" source="cWEXN-bF3hbhIx2hcadV-100" target="cWEXN-bF3hbhIx2hcadV-102" edge="1">
          <mxGeometry relative="1" as="geometry" />
        </mxCell>
        <mxCell id="cWEXN-bF3hbhIx2hcadV-100" value="" style="shape=image;html=1;verticalAlign=top;verticalLabelPosition=bottom;labelBackgroundColor=#ffffff;imageAspect=0;aspect=fixed;image=https://cdn0.iconfinder.com/data/icons/business-collection-2027/60/get-money-128.png;rounded=0;dashed=1;sketch=0;fontFamily=Helvetica;fontSize=11;fontColor=#330000;strokeColor=default;fillColor=none;gradientColor=none;" parent="1" vertex="1">
          <mxGeometry x="176" y="1790" width="80" height="80" as="geometry" />
        </mxCell>
        <mxCell id="cWEXN-bF3hbhIx2hcadV-101" value="Get Transaction Item&amp;nbsp;&lt;br&gt;" style="text;html=1;align=center;verticalAlign=middle;resizable=0;points=[];autosize=1;strokeColor=none;fillColor=none;fontSize=11;fontFamily=Helvetica;fontColor=#330000;" parent="1" vertex="1">
          <mxGeometry x="148" y="1880" width="120" height="20" as="geometry" />
        </mxCell>
        <mxCell id="cWEXN-bF3hbhIx2hcadV-110" style="edgeStyle=orthogonalEdgeStyle;rounded=0;orthogonalLoop=1;jettySize=auto;html=1;fontFamily=Helvetica;fontSize=11;fontColor=#330000;" parent="1" source="cWEXN-bF3hbhIx2hcadV-102" edge="1">
          <mxGeometry relative="1" as="geometry">
            <mxPoint x="520" y="2070" as="targetPoint" />
          </mxGeometry>
        </mxCell>
        <mxCell id="cWEXN-bF3hbhIx2hcadV-111" value="No" style="edgeLabel;html=1;align=center;verticalAlign=middle;resizable=0;points=[];fontSize=11;fontFamily=Helvetica;fontColor=#330000;" parent="cWEXN-bF3hbhIx2hcadV-110" vertex="1" connectable="0">
          <mxGeometry x="0.3115" y="1" relative="1" as="geometry">
            <mxPoint as="offset" />
          </mxGeometry>
        </mxCell>
        <mxCell id="cWEXN-bF3hbhIx2hcadV-112" style="edgeStyle=orthogonalEdgeStyle;rounded=0;orthogonalLoop=1;jettySize=auto;html=1;fontFamily=Helvetica;fontSize=11;fontColor=#330000;entryX=0.5;entryY=0;entryDx=0;entryDy=0;" parent="1" source="cWEXN-bF3hbhIx2hcadV-102" target="zL2r4gQqmG1PpCrWWyj4-24" edge="1">
          <mxGeometry relative="1" as="geometry">
            <Array as="points">
              <mxPoint x="40" y="1934" />
              <mxPoint x="40" y="4760" />
              <mxPoint x="440" y="4760" />
            </Array>
          </mxGeometry>
        </mxCell>
        <mxCell id="cWEXN-bF3hbhIx2hcadV-102" value="" style="shape=image;html=1;verticalAlign=top;verticalLabelPosition=bottom;labelBackgroundColor=#ffffff;imageAspect=0;aspect=fixed;image=https://cdn4.iconfinder.com/data/icons/ios-web-user-interface-multi-circle-flat-vol-4/512/Check_list_item_Item_list_to_do_ui_shopping-128.png;rounded=0;dashed=1;sketch=0;fontFamily=Helvetica;fontSize=11;fontColor=#330000;strokeColor=default;fillColor=none;gradientColor=none;" parent="1" vertex="1">
          <mxGeometry x="320" y="1899" width="70" height="70" as="geometry" />
        </mxCell>
        <mxCell id="cWEXN-bF3hbhIx2hcadV-103" value="Transaction Item - Nothing" style="text;html=1;align=center;verticalAlign=middle;resizable=0;points=[];autosize=1;strokeColor=none;fillColor=none;fontSize=11;fontFamily=Helvetica;fontColor=#330000;" parent="1" vertex="1">
          <mxGeometry x="285" y="1970" width="140" height="20" as="geometry" />
        </mxCell>
        <mxCell id="cWEXN-bF3hbhIx2hcadV-114" value="" style="rounded=0;whiteSpace=wrap;html=1;sketch=0;fontFamily=Helvetica;fontSize=11;fontColor=#330000;strokeColor=default;fillColor=none;gradientColor=none;dashed=1;strokeWidth=2;" parent="1" vertex="1">
          <mxGeometry x="108" y="1790" width="450" height="240" as="geometry" />
        </mxCell>
        <mxCell id="cWEXN-bF3hbhIx2hcadV-115" value="&lt;b&gt;&lt;font style=&quot;font-size: 12px;&quot;&gt;Get Transaction Item&lt;/font&gt;&lt;/b&gt;" style="text;html=1;align=center;verticalAlign=middle;resizable=0;points=[];autosize=1;strokeColor=none;fillColor=none;fontSize=11;fontFamily=Helvetica;fontColor=#330000;" parent="1" vertex="1">
          <mxGeometry x="256" y="1774" width="130" height="20" as="geometry" />
        </mxCell>
        <mxCell id="cWEXN-bF3hbhIx2hcadV-116" value="&lt;b&gt;&lt;font style=&quot;font-size: 12px;&quot;&gt;Process Transaction&lt;/font&gt;&lt;/b&gt;" style="text;html=1;align=center;verticalAlign=middle;resizable=0;points=[];autosize=1;strokeColor=none;fillColor=none;fontSize=11;fontFamily=Helvetica;fontColor=#330000;" parent="1" vertex="1">
          <mxGeometry x="531" y="2060" width="130" height="20" as="geometry" />
        </mxCell>
        <mxCell id="cWEXN-bF3hbhIx2hcadV-121" style="edgeStyle=orthogonalEdgeStyle;rounded=0;orthogonalLoop=1;jettySize=auto;html=1;fontFamily=Helvetica;fontSize=11;fontColor=#330000;" parent="1" source="cWEXN-bF3hbhIx2hcadV-117" edge="1">
          <mxGeometry relative="1" as="geometry">
            <mxPoint x="268" y="2168" as="targetPoint" />
          </mxGeometry>
        </mxCell>
        <mxCell id="cWEXN-bF3hbhIx2hcadV-117" value="" style="shape=image;html=1;verticalAlign=top;verticalLabelPosition=bottom;labelBackgroundColor=#ffffff;imageAspect=0;aspect=fixed;image=https://cdn4.iconfinder.com/data/icons/ionicons/512/icon-ios7-navigate-128.png;rounded=0;dashed=1;sketch=0;fontFamily=Helvetica;fontSize=11;fontColor=#330000;strokeColor=default;fillColor=none;gradientColor=none;" parent="1" vertex="1">
          <mxGeometry x="129" y="2139" width="58" height="58" as="geometry" />
        </mxCell>
        <mxCell id="cWEXN-bF3hbhIx2hcadV-118" value="Navigate To - &lt;br&gt;&lt;b&gt;MODA Folder&lt;/b&gt; -&amp;gt; &lt;b&gt;GSV&amp;nbsp; View&lt;/b&gt;" style="text;html=1;align=center;verticalAlign=middle;resizable=0;points=[];autosize=1;strokeColor=none;fillColor=none;fontSize=11;fontFamily=Helvetica;fontColor=#330000;" parent="1" vertex="1">
          <mxGeometry x="86" y="2193" width="160" height="30" as="geometry" />
        </mxCell>
        <mxCell id="cWEXN-bF3hbhIx2hcadV-124" style="edgeStyle=orthogonalEdgeStyle;rounded=0;orthogonalLoop=1;jettySize=auto;html=1;exitX=1;exitY=0.75;exitDx=0;exitDy=0;fontFamily=Helvetica;fontSize=11;fontColor=#330000;" parent="1" source="cWEXN-bF3hbhIx2hcadV-119" edge="1">
          <mxGeometry relative="1" as="geometry">
            <mxPoint x="418" y="2175" as="targetPoint" />
          </mxGeometry>
        </mxCell>
        <mxCell id="cWEXN-bF3hbhIx2hcadV-119" value="" style="shape=image;html=1;verticalAlign=top;verticalLabelPosition=bottom;labelBackgroundColor=#ffffff;imageAspect=0;aspect=fixed;image=https://cdn1.iconfinder.com/data/icons/material-core/20/translate-128.png;rounded=0;dashed=1;sketch=0;fontFamily=Helvetica;fontSize=11;fontColor=#330000;strokeColor=default;fillColor=none;gradientColor=none;" parent="1" vertex="1">
          <mxGeometry x="276" y="2130" width="60" height="60" as="geometry" />
        </mxCell>
        <mxCell id="cWEXN-bF3hbhIx2hcadV-120" value="Enter Provider &lt;br&gt;Number" style="text;html=1;align=center;verticalAlign=middle;resizable=0;points=[];autosize=1;strokeColor=none;fillColor=none;fontSize=11;fontFamily=Helvetica;fontColor=#330000;" parent="1" vertex="1">
          <mxGeometry x="261" y="2200" width="90" height="30" as="geometry" />
        </mxCell>
        <mxCell id="cWEXN-bF3hbhIx2hcadV-127" style="edgeStyle=orthogonalEdgeStyle;rounded=0;orthogonalLoop=1;jettySize=auto;html=1;fontFamily=Helvetica;fontSize=11;fontColor=#330000;" parent="1" source="cWEXN-bF3hbhIx2hcadV-122" edge="1">
          <mxGeometry relative="1" as="geometry">
            <mxPoint x="568" y="2171.5" as="targetPoint" />
          </mxGeometry>
        </mxCell>
        <mxCell id="cWEXN-bF3hbhIx2hcadV-122" value="" style="shape=image;html=1;verticalAlign=top;verticalLabelPosition=bottom;labelBackgroundColor=#ffffff;imageAspect=0;aspect=fixed;image=https://cdn1.iconfinder.com/data/icons/hawcons/32/699458-icon-27-one-finger-click-128.png;rounded=0;dashed=1;sketch=0;fontFamily=Helvetica;fontSize=11;fontColor=#330000;strokeColor=default;fillColor=none;gradientColor=none;" parent="1" vertex="1">
          <mxGeometry x="423.5" y="2139" width="65" height="65" as="geometry" />
        </mxCell>
        <mxCell id="cWEXN-bF3hbhIx2hcadV-125" value="Click on Download &lt;br&gt;Button" style="text;html=1;align=center;verticalAlign=middle;resizable=0;points=[];autosize=1;strokeColor=none;fillColor=none;fontSize=11;fontFamily=Helvetica;fontColor=#330000;" parent="1" vertex="1">
          <mxGeometry x="403" y="2200" width="110" height="30" as="geometry" />
        </mxCell>
        <mxCell id="cWEXN-bF3hbhIx2hcadV-126" value="" style="shape=image;html=1;verticalAlign=top;verticalLabelPosition=bottom;labelBackgroundColor=#ffffff;imageAspect=0;aspect=fixed;image=https://cdn2.iconfinder.com/data/icons/crystalproject/128x128/devices/3floppy_unmount.png;rounded=0;dashed=1;sketch=0;fontFamily=Helvetica;fontSize=11;fontColor=#330000;strokeColor=default;fillColor=none;gradientColor=none;" parent="1" vertex="1">
          <mxGeometry x="580" y="2154" width="50" height="50" as="geometry" />
        </mxCell>
        <mxCell id="cWEXN-bF3hbhIx2hcadV-128" value="Save File to the &lt;br&gt;Shared Path" style="text;html=1;align=center;verticalAlign=middle;resizable=0;points=[];autosize=1;strokeColor=none;fillColor=none;fontSize=11;fontFamily=Helvetica;fontColor=#330000;" parent="1" vertex="1">
          <mxGeometry x="557" y="2204" width="90" height="30" as="geometry" />
        </mxCell>
        <mxCell id="cWEXN-bF3hbhIx2hcadV-323" style="edgeStyle=orthogonalEdgeStyle;rounded=0;orthogonalLoop=1;jettySize=auto;html=1;entryX=0.459;entryY=-0.011;entryDx=0;entryDy=0;entryPerimeter=0;fontFamily=Helvetica;fontSize=11;fontColor=#330000;" parent="1" source="cWEXN-bF3hbhIx2hcadV-129" edge="1">
          <mxGeometry relative="1" as="geometry">
            <mxPoint x="370.62699999999995" y="2285.82" as="targetPoint" />
            <Array as="points">
              <mxPoint x="370" y="2270" />
            </Array>
          </mxGeometry>
        </mxCell>
        <mxCell id="cWEXN-bF3hbhIx2hcadV-130" value="&lt;b&gt;&lt;font style=&quot;font-size: 12px;&quot;&gt;Download the GSV Report&amp;nbsp;&lt;/font&gt;&lt;/b&gt;" style="text;html=1;align=center;verticalAlign=middle;resizable=0;points=[];autosize=1;strokeColor=none;fillColor=none;fontSize=11;fontFamily=Helvetica;fontColor=#330000;" parent="1" vertex="1">
          <mxGeometry x="448" y="2110" width="170" height="20" as="geometry" />
        </mxCell>
        <mxCell id="cWEXN-bF3hbhIx2hcadV-370" style="edgeStyle=orthogonalEdgeStyle;rounded=0;orthogonalLoop=1;jettySize=auto;html=1;fontFamily=Helvetica;fontSize=12;fontColor=#330000;" parent="1" edge="1">
          <mxGeometry relative="1" as="geometry">
            <mxPoint x="203" y="2336.2" as="targetPoint" />
            <mxPoint x="161.4000000000001" y="2336.2" as="sourcePoint" />
          </mxGeometry>
        </mxCell>
        <mxCell id="cWEXN-bF3hbhIx2hcadV-131" value="" style="dashed=0;outlineConnect=0;html=1;align=center;labelPosition=center;verticalLabelPosition=bottom;verticalAlign=top;shape=mxgraph.webicons.adobe_pdf;fillColor=#F40C0C;gradientColor=#610603;rounded=0;sketch=0;fontFamily=Helvetica;fontSize=12;fontColor=#330000;strokeColor=default;" parent="1" vertex="1">
          <mxGeometry x="93" y="2310" width="61.4" height="52.4" as="geometry" />
        </mxCell>
        <mxCell id="cWEXN-bF3hbhIx2hcadV-135" value="Read PDF File - &lt;br&gt;GSV Report" style="text;html=1;align=center;verticalAlign=middle;resizable=0;points=[];autosize=1;strokeColor=none;fillColor=none;fontSize=12;fontFamily=Helvetica;fontColor=#330000;" parent="1" vertex="1">
          <mxGeometry x="83.69999999999999" y="2367" width="100" height="30" as="geometry" />
        </mxCell>
        <mxCell id="cWEXN-bF3hbhIx2hcadV-376" style="edgeStyle=orthogonalEdgeStyle;rounded=0;orthogonalLoop=1;jettySize=auto;html=1;fontFamily=Helvetica;fontSize=12;fontColor=#330000;" parent="1" source="cWEXN-bF3hbhIx2hcadV-136" edge="1">
          <mxGeometry relative="1" as="geometry">
            <mxPoint x="320" y="2340" as="targetPoint" />
          </mxGeometry>
        </mxCell>
        <mxCell id="cWEXN-bF3hbhIx2hcadV-136" value="" style="shape=image;html=1;verticalLabelPosition=bottom;verticalAlign=top;imageAspect=0;image=img/clipart/Gear_128x128.png;rounded=0;dashed=1;sketch=0;fontFamily=Helvetica;fontSize=11;fontColor=#330000;strokeColor=default;fillColor=none;gradientColor=none;" parent="1" vertex="1">
          <mxGeometry x="212" y="2310" width="50" height="60" as="geometry" />
        </mxCell>
        <mxCell id="cWEXN-bF3hbhIx2hcadV-139" value="Save the file &lt;br&gt;data to Variable" style="text;html=1;align=center;verticalAlign=middle;resizable=0;points=[];autosize=1;strokeColor=none;fillColor=none;fontSize=11;fontFamily=Helvetica;fontColor=#330000;" parent="1" vertex="1">
          <mxGeometry x="192" y="2370" width="90" height="30" as="geometry" />
        </mxCell>
        <mxCell id="kzUMAcGg5ozdKPCntmQN-3" style="edgeStyle=orthogonalEdgeStyle;rounded=0;orthogonalLoop=1;jettySize=auto;html=1;" parent="1" source="cWEXN-bF3hbhIx2hcadV-141" edge="1">
          <mxGeometry relative="1" as="geometry">
            <mxPoint x="700" y="2346" as="targetPoint" />
          </mxGeometry>
        </mxCell>
        <mxCell id="kzUMAcGg5ozdKPCntmQN-4" value="&lt;span style=&quot;color: rgb(51, 0, 0);&quot;&gt;Invalid&amp;nbsp; GSV Report&lt;/span&gt;" style="edgeLabel;html=1;align=center;verticalAlign=middle;resizable=0;points=[];" parent="kzUMAcGg5ozdKPCntmQN-3" vertex="1" connectable="0">
          <mxGeometry x="-0.2338" y="1" relative="1" as="geometry">
            <mxPoint as="offset" />
          </mxGeometry>
        </mxCell>
        <mxCell id="cWEXN-bF3hbhIx2hcadV-141" value="" style="shape=image;html=1;verticalAlign=top;verticalLabelPosition=bottom;labelBackgroundColor=#ffffff;imageAspect=0;aspect=fixed;image=https://cdn4.iconfinder.com/data/icons/essentials-74/24/002_-_Search-128.png;rounded=0;dashed=1;sketch=0;fontFamily=Helvetica;fontSize=11;fontColor=#330000;strokeColor=default;fillColor=none;gradientColor=none;" parent="1" vertex="1">
          <mxGeometry x="324" y="2312" width="68" height="68" as="geometry" />
        </mxCell>
        <mxCell id="cWEXN-bF3hbhIx2hcadV-148" style="edgeStyle=orthogonalEdgeStyle;rounded=0;orthogonalLoop=1;jettySize=auto;html=1;entryX=0.5;entryY=0;entryDx=0;entryDy=0;fontFamily=Helvetica;fontSize=11;fontColor=#330000;" parent="1" source="cWEXN-bF3hbhIx2hcadV-142" target="cWEXN-bF3hbhIx2hcadV-147" edge="1">
          <mxGeometry relative="1" as="geometry" />
        </mxCell>
        <mxCell id="cWEXN-bF3hbhIx2hcadV-151" value="No" style="edgeLabel;html=1;align=center;verticalAlign=middle;resizable=0;points=[];fontSize=11;fontFamily=Helvetica;fontColor=#330000;" parent="cWEXN-bF3hbhIx2hcadV-148" vertex="1" connectable="0">
          <mxGeometry x="0.1864" y="1" relative="1" as="geometry">
            <mxPoint y="1" as="offset" />
          </mxGeometry>
        </mxCell>
        <mxCell id="cWEXN-bF3hbhIx2hcadV-142" value="Check If&amp;nbsp; File Data Consist - &lt;br&gt;&quot;Global Security Verification Report&quot;" style="text;html=1;align=center;verticalAlign=middle;resizable=0;points=[];autosize=1;strokeColor=none;fillColor=none;fontSize=11;fontFamily=Helvetica;fontColor=#330000;" parent="1" vertex="1">
          <mxGeometry x="269" y="2388" width="190" height="30" as="geometry" />
        </mxCell>
        <mxCell id="cWEXN-bF3hbhIx2hcadV-152" style="edgeStyle=orthogonalEdgeStyle;rounded=0;orthogonalLoop=1;jettySize=auto;html=1;fontFamily=Helvetica;fontSize=11;fontColor=#330000;" parent="1" source="cWEXN-bF3hbhIx2hcadV-147" target="cWEXN-bF3hbhIx2hcadV-150" edge="1">
          <mxGeometry relative="1" as="geometry" />
        </mxCell>
        <mxCell id="cWEXN-bF3hbhIx2hcadV-147" value="" style="shape=image;html=1;verticalAlign=top;verticalLabelPosition=bottom;labelBackgroundColor=#ffffff;imageAspect=0;aspect=fixed;image=https://cdn2.iconfinder.com/data/icons/font-awesome/1792/get-pocket-128.png;rounded=0;dashed=1;sketch=0;fontFamily=Helvetica;fontSize=11;fontColor=#330000;strokeColor=default;fillColor=none;gradientColor=none;" parent="1" vertex="1">
          <mxGeometry x="333" y="2536" width="61" height="61" as="geometry" />
        </mxCell>
        <mxCell id="cWEXN-bF3hbhIx2hcadV-149" value="Retrieve the &lt;br&gt;Overall Facility Score" style="text;html=1;align=center;verticalAlign=middle;resizable=0;points=[];autosize=1;strokeColor=none;fillColor=none;fontSize=11;fontFamily=Helvetica;fontColor=#330000;" parent="1" vertex="1">
          <mxGeometry x="299" y="2596" width="120" height="30" as="geometry" />
        </mxCell>
        <mxCell id="cWEXN-bF3hbhIx2hcadV-161" style="edgeStyle=orthogonalEdgeStyle;rounded=0;orthogonalLoop=1;jettySize=auto;html=1;fontFamily=Helvetica;fontSize=11;fontColor=#330000;entryX=0.5;entryY=1;entryDx=0;entryDy=0;" parent="1" source="cWEXN-bF3hbhIx2hcadV-150" target="cWEXN-bF3hbhIx2hcadV-158" edge="1">
          <mxGeometry relative="1" as="geometry">
            <mxPoint x="674" y="2370" as="targetPoint" />
          </mxGeometry>
        </mxCell>
        <mxCell id="cWEXN-bF3hbhIx2hcadV-162" value="No Need of CAP Creation" style="edgeLabel;html=1;align=center;verticalAlign=middle;resizable=0;points=[];fontSize=11;fontFamily=Helvetica;fontColor=#330000;rotation=270;" parent="cWEXN-bF3hbhIx2hcadV-161" vertex="1" connectable="0">
          <mxGeometry x="0.196" y="-1" relative="1" as="geometry">
            <mxPoint y="1" as="offset" />
          </mxGeometry>
        </mxCell>
        <mxCell id="cWEXN-bF3hbhIx2hcadV-169" value="Yes" style="edgeLabel;html=1;align=center;verticalAlign=middle;resizable=0;points=[];fontSize=11;fontFamily=Helvetica;fontColor=#330000;" parent="cWEXN-bF3hbhIx2hcadV-161" vertex="1" connectable="0">
          <mxGeometry x="-0.5913" y="1" relative="1" as="geometry">
            <mxPoint y="1" as="offset" />
          </mxGeometry>
        </mxCell>
        <mxCell id="cWEXN-bF3hbhIx2hcadV-150" value="" style="shape=image;html=1;verticalAlign=top;verticalLabelPosition=bottom;labelBackgroundColor=#ffffff;imageAspect=0;aspect=fixed;image=https://cdn2.iconfinder.com/data/icons/font-awesome/1792/percent-128.png;rounded=0;dashed=1;sketch=0;fontFamily=Helvetica;fontSize=11;fontColor=#330000;strokeColor=default;fillColor=none;gradientColor=none;" parent="1" vertex="1">
          <mxGeometry x="516" y="2538.5" width="56" height="56" as="geometry" />
        </mxCell>
        <mxCell id="cWEXN-bF3hbhIx2hcadV-168" style="edgeStyle=orthogonalEdgeStyle;rounded=0;orthogonalLoop=1;jettySize=auto;html=1;entryX=0.75;entryY=1;entryDx=0;entryDy=0;fontFamily=Helvetica;fontSize=11;fontColor=#330000;" parent="1" source="cWEXN-bF3hbhIx2hcadV-153" edge="1">
          <mxGeometry relative="1" as="geometry">
            <mxPoint x="555.75" y="2670" as="targetPoint" />
            <Array as="points">
              <mxPoint x="554" y="2576" />
              <mxPoint x="556" y="2576" />
            </Array>
          </mxGeometry>
        </mxCell>
        <mxCell id="cWEXN-bF3hbhIx2hcadV-170" value="No" style="edgeLabel;html=1;align=center;verticalAlign=middle;resizable=0;points=[];fontSize=11;fontFamily=Helvetica;fontColor=#330000;" parent="cWEXN-bF3hbhIx2hcadV-168" vertex="1" connectable="0">
          <mxGeometry x="0.506" y="3" relative="1" as="geometry">
            <mxPoint as="offset" />
          </mxGeometry>
        </mxCell>
        <mxCell id="cWEXN-bF3hbhIx2hcadV-153" value="Facility Score &lt;br&gt;&amp;gt;=85 %" style="text;html=1;align=center;verticalAlign=middle;resizable=0;points=[];autosize=1;strokeColor=none;fillColor=none;fontSize=11;fontFamily=Helvetica;fontColor=#330000;" parent="1" vertex="1">
          <mxGeometry x="480" y="2596" width="80" height="30" as="geometry" />
        </mxCell>
        <mxCell id="kzUMAcGg5ozdKPCntmQN-5" style="edgeStyle=orthogonalEdgeStyle;rounded=0;orthogonalLoop=1;jettySize=auto;html=1;entryX=0.998;entryY=0.446;entryDx=0;entryDy=0;entryPerimeter=0;" parent="1" source="cWEXN-bF3hbhIx2hcadV-158" target="cWEXN-bF3hbhIx2hcadV-114" edge="1">
          <mxGeometry relative="1" as="geometry">
            <Array as="points">
              <mxPoint x="720" y="1897" />
            </Array>
          </mxGeometry>
        </mxCell>
        <mxCell id="kzUMAcGg5ozdKPCntmQN-11" value="Business Exception" style="edgeLabel;html=1;align=center;verticalAlign=middle;resizable=0;points=[];fontSize=12;fontStyle=1" parent="kzUMAcGg5ozdKPCntmQN-5" vertex="1" connectable="0">
          <mxGeometry x="0.6807" y="-2" relative="1" as="geometry">
            <mxPoint as="offset" />
          </mxGeometry>
        </mxCell>
        <mxCell id="cWEXN-bF3hbhIx2hcadV-158" value="" style="shape=image;html=1;verticalAlign=top;verticalLabelPosition=bottom;labelBackgroundColor=#ffffff;imageAspect=0;aspect=fixed;image=https://cdn2.iconfinder.com/data/icons/coronavirus-disease-highlight/128/Working-online-laptop-freelancer-128.png;rounded=0;dashed=1;sketch=0;fontFamily=Helvetica;fontSize=11;fontColor=#330000;strokeColor=default;fillColor=none;gradientColor=none;" parent="1" vertex="1">
          <mxGeometry x="702" y="2316" width="48" height="48" as="geometry" />
        </mxCell>
        <mxCell id="cWEXN-bF3hbhIx2hcadV-163" value="Raise &lt;br&gt;Business &lt;br&gt;Exception" style="text;html=1;align=center;verticalAlign=middle;resizable=0;points=[];autosize=1;strokeColor=none;fillColor=none;fontSize=11;fontFamily=Helvetica;fontColor=#330000;" parent="1" vertex="1">
          <mxGeometry x="670" y="2370" width="60" height="40" as="geometry" />
        </mxCell>
        <mxCell id="cWEXN-bF3hbhIx2hcadV-171" value="&lt;font size=&quot;1&quot; style=&quot;&quot;&gt;&lt;b style=&quot;font-size: 12px;&quot;&gt;Validation of GSV Report&lt;/b&gt;&lt;/font&gt;" style="text;html=1;align=center;verticalAlign=middle;resizable=0;points=[];autosize=1;strokeColor=none;fillColor=none;fontSize=11;fontFamily=Helvetica;fontColor=#330000;" parent="1" vertex="1">
          <mxGeometry x="502" y="2290" width="160" height="20" as="geometry" />
        </mxCell>
        <mxCell id="cWEXN-bF3hbhIx2hcadV-179" style="edgeStyle=orthogonalEdgeStyle;rounded=0;orthogonalLoop=1;jettySize=auto;html=1;fontFamily=Helvetica;fontSize=11;fontColor=#330000;" parent="1" source="cWEXN-bF3hbhIx2hcadV-175" edge="1">
          <mxGeometry relative="1" as="geometry">
            <mxPoint x="283" y="2808.5" as="targetPoint" />
          </mxGeometry>
        </mxCell>
        <mxCell id="cWEXN-bF3hbhIx2hcadV-175" value="" style="shape=image;html=1;verticalAlign=top;verticalLabelPosition=bottom;labelBackgroundColor=#ffffff;imageAspect=0;aspect=fixed;image=https://cdn4.iconfinder.com/data/icons/ionicons/512/icon-ios7-navigate-outline-128.png;rounded=0;dashed=1;sketch=0;fontFamily=Helvetica;fontSize=12;fontColor=#330000;strokeColor=default;fillColor=none;gradientColor=none;" parent="1" vertex="1">
          <mxGeometry x="142.2" y="2774" width="69" height="69" as="geometry" />
        </mxCell>
        <mxCell id="cWEXN-bF3hbhIx2hcadV-176" value="&lt;font style=&quot;font-size: 11px;&quot;&gt;Navigate To VMS &lt;br&gt;Portal&lt;/font&gt;" style="text;html=1;align=center;verticalAlign=middle;resizable=0;points=[];autosize=1;strokeColor=none;fillColor=none;fontSize=12;fontFamily=Helvetica;fontColor=#330000;" parent="1" vertex="1">
          <mxGeometry x="118" y="2844" width="100" height="30" as="geometry" />
        </mxCell>
        <mxCell id="cWEXN-bF3hbhIx2hcadV-181" style="edgeStyle=orthogonalEdgeStyle;rounded=0;orthogonalLoop=1;jettySize=auto;html=1;fontFamily=Helvetica;fontSize=11;fontColor=#330000;" parent="1" source="cWEXN-bF3hbhIx2hcadV-177" edge="1">
          <mxGeometry relative="1" as="geometry">
            <mxPoint x="423" y="2808.5" as="targetPoint" />
          </mxGeometry>
        </mxCell>
        <mxCell id="cWEXN-bF3hbhIx2hcadV-177" value="" style="shape=image;html=1;verticalAlign=top;verticalLabelPosition=bottom;labelBackgroundColor=#ffffff;imageAspect=0;aspect=fixed;image=https://cdn1.iconfinder.com/data/icons/hawcons/32/699505-icon-27-one-finger-click-128.png;rounded=0;dashed=1;sketch=0;fontFamily=Helvetica;fontSize=12;fontColor=#330000;strokeColor=default;fillColor=none;gradientColor=none;" parent="1" vertex="1">
          <mxGeometry x="288" y="2779.5" width="58" height="58" as="geometry" />
        </mxCell>
        <mxCell id="cWEXN-bF3hbhIx2hcadV-178" value="&lt;font style=&quot;font-size: 11px;&quot;&gt;Click&amp;nbsp; on&amp;nbsp;&lt;br&gt;&amp;nbsp;Provider &lt;br&gt;(Vendor Management)&lt;/font&gt;" style="text;html=1;align=center;verticalAlign=middle;resizable=0;points=[];autosize=1;strokeColor=none;fillColor=none;fontSize=12;fontFamily=Helvetica;fontColor=#330000;" parent="1" vertex="1">
          <mxGeometry x="257" y="2837.5" width="120" height="50" as="geometry" />
        </mxCell>
        <mxCell id="cWEXN-bF3hbhIx2hcadV-184" style="edgeStyle=orthogonalEdgeStyle;rounded=0;orthogonalLoop=1;jettySize=auto;html=1;fontFamily=Helvetica;fontSize=11;fontColor=#330000;" parent="1" source="cWEXN-bF3hbhIx2hcadV-180" edge="1">
          <mxGeometry relative="1" as="geometry">
            <mxPoint x="573" y="2807" as="targetPoint" />
          </mxGeometry>
        </mxCell>
        <mxCell id="cWEXN-bF3hbhIx2hcadV-180" value="" style="shape=image;html=1;verticalAlign=top;verticalLabelPosition=bottom;labelBackgroundColor=#ffffff;imageAspect=0;aspect=fixed;image=https://cdn1.iconfinder.com/data/icons/hawcons/32/699458-icon-27-one-finger-click-128.png;rounded=0;dashed=1;sketch=0;fontFamily=Helvetica;fontSize=11;fontColor=#330000;strokeColor=default;fillColor=none;gradientColor=none;" parent="1" vertex="1">
          <mxGeometry x="430" y="2777" width="60" height="60" as="geometry" />
        </mxCell>
        <mxCell id="cWEXN-bF3hbhIx2hcadV-182" value="Click On&lt;br&gt;FG Factory All" style="text;html=1;align=center;verticalAlign=middle;resizable=0;points=[];autosize=1;strokeColor=none;fillColor=none;fontSize=11;fontFamily=Helvetica;fontColor=#330000;" parent="1" vertex="1">
          <mxGeometry x="416" y="2839" width="90" height="30" as="geometry" />
        </mxCell>
        <mxCell id="cWEXN-bF3hbhIx2hcadV-187" style="edgeStyle=orthogonalEdgeStyle;rounded=0;orthogonalLoop=1;jettySize=auto;html=1;entryX=1;entryY=0.5;entryDx=0;entryDy=0;fontFamily=Helvetica;fontSize=11;fontColor=#330000;" parent="1" source="cWEXN-bF3hbhIx2hcadV-183" target="cWEXN-bF3hbhIx2hcadV-186" edge="1">
          <mxGeometry relative="1" as="geometry">
            <Array as="points">
              <mxPoint x="668" y="2810" />
              <mxPoint x="668" y="2959" />
            </Array>
          </mxGeometry>
        </mxCell>
        <mxCell id="cWEXN-bF3hbhIx2hcadV-183" value="" style="shape=image;html=1;verticalAlign=top;verticalLabelPosition=bottom;labelBackgroundColor=#ffffff;imageAspect=0;aspect=fixed;image=https://cdn2.iconfinder.com/data/icons/atrous/512/search_binoculars_find-128.png;rounded=0;dashed=1;sketch=0;fontFamily=Helvetica;fontSize=11;fontColor=#330000;strokeColor=default;fillColor=none;gradientColor=none;" parent="1" vertex="1">
          <mxGeometry x="574" y="2782" width="58" height="58" as="geometry" />
        </mxCell>
        <mxCell id="cWEXN-bF3hbhIx2hcadV-185" value="Click&amp;nbsp; On&amp;nbsp;&lt;br&gt;Find Icon" style="text;html=1;align=center;verticalAlign=middle;resizable=0;points=[];autosize=1;strokeColor=none;fillColor=none;fontSize=11;fontFamily=Helvetica;fontColor=#330000;" parent="1" vertex="1">
          <mxGeometry x="568" y="2844" width="60" height="30" as="geometry" />
        </mxCell>
        <mxCell id="cWEXN-bF3hbhIx2hcadV-191" style="edgeStyle=orthogonalEdgeStyle;rounded=0;orthogonalLoop=1;jettySize=auto;html=1;fontFamily=Helvetica;fontSize=11;fontColor=#330000;" parent="1" source="cWEXN-bF3hbhIx2hcadV-186" edge="1">
          <mxGeometry relative="1" as="geometry">
            <mxPoint x="533" y="2959" as="targetPoint" />
          </mxGeometry>
        </mxCell>
        <mxCell id="cWEXN-bF3hbhIx2hcadV-186" value="" style="shape=image;html=1;verticalAlign=top;verticalLabelPosition=bottom;labelBackgroundColor=#ffffff;imageAspect=0;aspect=fixed;image=https://cdn1.iconfinder.com/data/icons/iconoir-vol-2/24/frame-select-128.png;rounded=0;dashed=1;sketch=0;fontFamily=Helvetica;fontSize=11;fontColor=#330000;strokeColor=default;fillColor=none;gradientColor=none;" parent="1" vertex="1">
          <mxGeometry x="590" y="2930" width="58" height="58" as="geometry" />
        </mxCell>
        <mxCell id="cWEXN-bF3hbhIx2hcadV-188" value="Select Provider &lt;br&gt;from Dropdown" style="text;html=1;align=center;verticalAlign=middle;resizable=0;points=[];autosize=1;strokeColor=none;fillColor=none;fontSize=11;fontFamily=Helvetica;fontColor=#330000;" parent="1" vertex="1">
          <mxGeometry x="574" y="2988" width="90" height="30" as="geometry" />
        </mxCell>
        <mxCell id="cWEXN-bF3hbhIx2hcadV-195" style="edgeStyle=orthogonalEdgeStyle;rounded=0;orthogonalLoop=1;jettySize=auto;html=1;fontFamily=Helvetica;fontSize=11;fontColor=#330000;" parent="1" source="cWEXN-bF3hbhIx2hcadV-190" edge="1">
          <mxGeometry relative="1" as="geometry">
            <mxPoint x="413" y="2961.5" as="targetPoint" />
          </mxGeometry>
        </mxCell>
        <mxCell id="cWEXN-bF3hbhIx2hcadV-190" value="" style="shape=image;html=1;verticalAlign=top;verticalLabelPosition=bottom;labelBackgroundColor=#ffffff;imageAspect=0;aspect=fixed;image=https://cdn4.iconfinder.com/data/icons/evil-icons-user-interface/64/pen-128.png;rounded=0;dashed=1;sketch=0;fontFamily=Helvetica;fontSize=11;fontColor=#330000;strokeColor=default;fillColor=none;gradientColor=none;" parent="1" vertex="1">
          <mxGeometry x="466.5" y="2930" width="63" height="63" as="geometry" />
        </mxCell>
        <mxCell id="cWEXN-bF3hbhIx2hcadV-192" value="Enter Provider&amp;nbsp;&lt;br&gt;Number" style="text;html=1;align=center;verticalAlign=middle;resizable=0;points=[];autosize=1;strokeColor=none;fillColor=none;fontSize=11;fontFamily=Helvetica;fontColor=#330000;" parent="1" vertex="1">
          <mxGeometry x="453" y="2988" width="90" height="30" as="geometry" />
        </mxCell>
        <mxCell id="cWEXN-bF3hbhIx2hcadV-198" style="edgeStyle=orthogonalEdgeStyle;rounded=0;orthogonalLoop=1;jettySize=auto;html=1;fontFamily=Helvetica;fontSize=11;fontColor=#330000;" parent="1" source="cWEXN-bF3hbhIx2hcadV-194" edge="1">
          <mxGeometry relative="1" as="geometry">
            <mxPoint x="273" y="2961.5" as="targetPoint" />
          </mxGeometry>
        </mxCell>
        <mxCell id="cWEXN-bF3hbhIx2hcadV-194" value="Find" style="html=1;shadow=0;dashed=0;shape=mxgraph.bootstrap.rrect;rSize=5;strokeColor=none;strokeWidth=1;fillColor=#343A40;fontColor=#ffffff;whiteSpace=wrap;align=center;verticalAlign=middle;spacingLeft=0;fontStyle=0;fontSize=16;spacing=5;rounded=0;sketch=0;fontFamily=Helvetica;" parent="1" vertex="1">
          <mxGeometry x="340" y="2941.5" width="60" height="40" as="geometry" />
        </mxCell>
        <mxCell id="cWEXN-bF3hbhIx2hcadV-196" value="Click On&lt;br&gt;Find Button" style="text;html=1;align=center;verticalAlign=middle;resizable=0;points=[];autosize=1;strokeColor=none;fillColor=none;fontSize=11;fontFamily=Helvetica;fontColor=#330000;" parent="1" vertex="1">
          <mxGeometry x="338" y="2988" width="70" height="30" as="geometry" />
        </mxCell>
        <mxCell id="cWEXN-bF3hbhIx2hcadV-201" style="edgeStyle=orthogonalEdgeStyle;rounded=0;orthogonalLoop=1;jettySize=auto;html=1;entryX=0.5;entryY=0;entryDx=0;entryDy=0;fontFamily=Helvetica;fontSize=11;fontColor=#330000;" parent="1" source="cWEXN-bF3hbhIx2hcadV-197" target="cWEXN-bF3hbhIx2hcadV-200" edge="1">
          <mxGeometry relative="1" as="geometry" />
        </mxCell>
        <mxCell id="cWEXN-bF3hbhIx2hcadV-197" value="" style="shape=image;html=1;verticalAlign=top;verticalLabelPosition=bottom;labelBackgroundColor=#ffffff;imageAspect=0;aspect=fixed;image=https://cdn1.iconfinder.com/data/icons/science-technology-outline-24-px/24/Body_organ_eye_optical_view_visual-128.png;rounded=0;dashed=1;sketch=0;fontFamily=Helvetica;fontSize=11;fontColor=#330000;strokeColor=default;fillColor=none;gradientColor=none;" parent="1" vertex="1">
          <mxGeometry x="218" y="2938" width="50" height="50" as="geometry" />
        </mxCell>
        <mxCell id="cWEXN-bF3hbhIx2hcadV-199" value="Click On View &lt;br&gt;Record" style="text;html=1;align=center;verticalAlign=middle;resizable=0;points=[];autosize=1;strokeColor=none;fillColor=none;fontSize=11;fontFamily=Helvetica;fontColor=#330000;" parent="1" vertex="1">
          <mxGeometry x="205" y="2986" width="80" height="30" as="geometry" />
        </mxCell>
        <mxCell id="cWEXN-bF3hbhIx2hcadV-204" style="edgeStyle=orthogonalEdgeStyle;rounded=0;orthogonalLoop=1;jettySize=auto;html=1;fontFamily=Helvetica;fontSize=11;fontColor=#330000;" parent="1" source="cWEXN-bF3hbhIx2hcadV-200" edge="1">
          <mxGeometry relative="1" as="geometry">
            <mxPoint x="283" y="3099" as="targetPoint" />
          </mxGeometry>
        </mxCell>
        <mxCell id="cWEXN-bF3hbhIx2hcadV-200" value="" style="shape=image;html=1;verticalAlign=top;verticalLabelPosition=bottom;labelBackgroundColor=#ffffff;imageAspect=0;aspect=fixed;image=https://cdn2.iconfinder.com/data/icons/boxicons-solid-vol-1/24/bxs-calendar-edit-128.png;rounded=0;dashed=1;sketch=0;fontFamily=Helvetica;fontSize=11;fontColor=#330000;strokeColor=default;fillColor=none;gradientColor=none;" parent="1" vertex="1">
          <mxGeometry x="142" y="3070" width="58" height="58" as="geometry" />
        </mxCell>
        <mxCell id="cWEXN-bF3hbhIx2hcadV-202" value="Click On &lt;br&gt;Edit" style="text;html=1;align=center;verticalAlign=middle;resizable=0;points=[];autosize=1;strokeColor=none;fillColor=none;fontSize=11;fontFamily=Helvetica;fontColor=#330000;" parent="1" vertex="1">
          <mxGeometry x="143" y="3128" width="60" height="30" as="geometry" />
        </mxCell>
        <mxCell id="cWEXN-bF3hbhIx2hcadV-207" style="edgeStyle=orthogonalEdgeStyle;rounded=0;orthogonalLoop=1;jettySize=auto;html=1;fontFamily=Helvetica;fontSize=11;fontColor=#330000;" parent="1" source="cWEXN-bF3hbhIx2hcadV-203" edge="1">
          <mxGeometry relative="1" as="geometry">
            <mxPoint x="413" y="3099" as="targetPoint" />
          </mxGeometry>
        </mxCell>
        <mxCell id="cWEXN-bF3hbhIx2hcadV-203" value="" style="shape=image;html=1;verticalAlign=top;verticalLabelPosition=bottom;labelBackgroundColor=#ffffff;imageAspect=0;aspect=fixed;image=https://cdn1.iconfinder.com/data/icons/hawcons/32/699219-icon-42-one-finger-click-128.png;rounded=0;dashed=1;sketch=0;fontFamily=Helvetica;fontSize=11;fontColor=#330000;strokeColor=default;fillColor=none;gradientColor=none;" parent="1" vertex="1">
          <mxGeometry x="288" y="3074" width="50" height="50" as="geometry" />
        </mxCell>
        <mxCell id="cWEXN-bF3hbhIx2hcadV-205" value="Click On&amp;nbsp;&lt;br&gt;Assign Compliance Form" style="text;html=1;align=center;verticalAlign=middle;resizable=0;points=[];autosize=1;strokeColor=none;fillColor=none;fontSize=11;fontFamily=Helvetica;fontColor=#330000;" parent="1" vertex="1">
          <mxGeometry x="244" y="3120" width="140" height="30" as="geometry" />
        </mxCell>
        <mxCell id="cWEXN-bF3hbhIx2hcadV-210" style="edgeStyle=orthogonalEdgeStyle;rounded=0;orthogonalLoop=1;jettySize=auto;html=1;entryX=0;entryY=0.5;entryDx=0;entryDy=0;fontFamily=Helvetica;fontSize=11;fontColor=#330000;" parent="1" source="cWEXN-bF3hbhIx2hcadV-206" target="cWEXN-bF3hbhIx2hcadV-209" edge="1">
          <mxGeometry relative="1" as="geometry" />
        </mxCell>
        <mxCell id="cWEXN-bF3hbhIx2hcadV-206" value="" style="shape=image;html=1;verticalAlign=top;verticalLabelPosition=bottom;labelBackgroundColor=#ffffff;imageAspect=0;aspect=fixed;image=https://cdn4.iconfinder.com/data/icons/essentials-71/24/047_-_Menu-128.png;rounded=0;dashed=1;sketch=0;fontFamily=Helvetica;fontSize=11;fontColor=#330000;strokeColor=default;fillColor=none;gradientColor=none;" parent="1" vertex="1">
          <mxGeometry x="423.5" y="3087" width="44" height="44" as="geometry" />
        </mxCell>
        <mxCell id="cWEXN-bF3hbhIx2hcadV-208" value="Select - GSV CAP &lt;br&gt;From &lt;br&gt;Dropdown" style="text;html=1;align=center;verticalAlign=middle;resizable=0;points=[];autosize=1;strokeColor=none;fillColor=none;fontSize=11;fontFamily=Helvetica;fontColor=#330000;" parent="1" vertex="1">
          <mxGeometry x="398.5" y="3131" width="100" height="40" as="geometry" />
        </mxCell>
        <mxCell id="cWEXN-bF3hbhIx2hcadV-209" value="" style="shape=image;html=1;verticalAlign=top;verticalLabelPosition=bottom;labelBackgroundColor=#ffffff;imageAspect=0;aspect=fixed;image=https://cdn1.iconfinder.com/data/icons/ionicons-fill-vol-2/512/save-128.png;rounded=0;dashed=1;sketch=0;fontFamily=Helvetica;fontSize=11;fontColor=#330000;strokeColor=default;fillColor=none;gradientColor=none;" parent="1" vertex="1">
          <mxGeometry x="558" y="3079.5" width="59" height="59" as="geometry" />
        </mxCell>
        <mxCell id="cWEXN-bF3hbhIx2hcadV-211" value="Click On &lt;br&gt;Save" style="text;html=1;align=center;verticalAlign=middle;resizable=0;points=[];autosize=1;strokeColor=none;fillColor=none;fontSize=11;fontFamily=Helvetica;fontColor=#330000;" parent="1" vertex="1">
          <mxGeometry x="553" y="3135" width="60" height="30" as="geometry" />
        </mxCell>
        <mxCell id="cWEXN-bF3hbhIx2hcadV-213" value="&lt;b&gt;&lt;font style=&quot;font-size: 12px;&quot;&gt;Update Provider Vendor Management&lt;/font&gt;&lt;/b&gt;" style="text;html=1;align=center;verticalAlign=middle;resizable=0;points=[];autosize=1;strokeColor=none;fillColor=none;fontSize=11;fontFamily=Helvetica;fontColor=#330000;" parent="1" vertex="1">
          <mxGeometry x="433" y="2740" width="230" height="20" as="geometry" />
        </mxCell>
        <mxCell id="kzUMAcGg5ozdKPCntmQN-6" style="edgeStyle=orthogonalEdgeStyle;rounded=0;orthogonalLoop=1;jettySize=auto;html=1;exitX=0.5;exitY=1;exitDx=0;exitDy=0;" parent="1" edge="1">
          <mxGeometry relative="1" as="geometry">
            <mxPoint x="407" y="3720" as="targetPoint" />
            <mxPoint x="414" y="3670" as="sourcePoint" />
            <Array as="points">
              <mxPoint x="407" y="3670" />
            </Array>
          </mxGeometry>
        </mxCell>
        <mxCell id="cWEXN-bF3hbhIx2hcadV-215" value="" style="rounded=0;whiteSpace=wrap;html=1;dashed=1;sketch=0;fontFamily=Helvetica;fontSize=11;fontColor=#330000;strokeColor=default;fillColor=none;gradientColor=none;" parent="1" vertex="1">
          <mxGeometry x="70" y="3240" width="688" height="430" as="geometry" />
        </mxCell>
        <mxCell id="cWEXN-bF3hbhIx2hcadV-216" style="edgeStyle=orthogonalEdgeStyle;rounded=0;orthogonalLoop=1;jettySize=auto;html=1;fontFamily=Helvetica;fontSize=11;fontColor=#330000;" parent="1" source="cWEXN-bF3hbhIx2hcadV-217" edge="1">
          <mxGeometry relative="1" as="geometry">
            <mxPoint x="293" y="3308.5" as="targetPoint" />
          </mxGeometry>
        </mxCell>
        <mxCell id="cWEXN-bF3hbhIx2hcadV-217" value="" style="shape=image;html=1;verticalAlign=top;verticalLabelPosition=bottom;labelBackgroundColor=#ffffff;imageAspect=0;aspect=fixed;image=https://cdn4.iconfinder.com/data/icons/ionicons/512/icon-ios7-navigate-outline-128.png;rounded=0;dashed=1;sketch=0;fontFamily=Helvetica;fontSize=12;fontColor=#330000;strokeColor=default;fillColor=none;gradientColor=none;" parent="1" vertex="1">
          <mxGeometry x="152.2" y="3274" width="69" height="69" as="geometry" />
        </mxCell>
        <mxCell id="cWEXN-bF3hbhIx2hcadV-218" value="&lt;font style=&quot;font-size: 11px;&quot;&gt;Navigate To VMS &lt;br&gt;Portal&lt;/font&gt;" style="text;html=1;align=center;verticalAlign=middle;resizable=0;points=[];autosize=1;strokeColor=none;fillColor=none;fontSize=12;fontFamily=Helvetica;fontColor=#330000;" parent="1" vertex="1">
          <mxGeometry x="128" y="3344" width="100" height="30" as="geometry" />
        </mxCell>
        <mxCell id="cWEXN-bF3hbhIx2hcadV-219" style="edgeStyle=orthogonalEdgeStyle;rounded=0;orthogonalLoop=1;jettySize=auto;html=1;fontFamily=Helvetica;fontSize=11;fontColor=#330000;" parent="1" source="cWEXN-bF3hbhIx2hcadV-220" edge="1">
          <mxGeometry relative="1" as="geometry">
            <mxPoint x="433" y="3308.5" as="targetPoint" />
          </mxGeometry>
        </mxCell>
        <mxCell id="cWEXN-bF3hbhIx2hcadV-220" value="" style="shape=image;html=1;verticalAlign=top;verticalLabelPosition=bottom;labelBackgroundColor=#ffffff;imageAspect=0;aspect=fixed;image=https://cdn1.iconfinder.com/data/icons/hawcons/32/699505-icon-27-one-finger-click-128.png;rounded=0;dashed=1;sketch=0;fontFamily=Helvetica;fontSize=12;fontColor=#330000;strokeColor=default;fillColor=none;gradientColor=none;" parent="1" vertex="1">
          <mxGeometry x="298" y="3279.5" width="58" height="58" as="geometry" />
        </mxCell>
        <mxCell id="cWEXN-bF3hbhIx2hcadV-221" value="&lt;font style=&quot;font-size: 11px;&quot;&gt;Click&amp;nbsp; on&amp;nbsp;&lt;br&gt;&amp;nbsp;Vendor Compliance &lt;br&gt;Form&lt;br&gt;&lt;/font&gt;" style="text;html=1;align=center;verticalAlign=middle;resizable=0;points=[];autosize=1;strokeColor=none;fillColor=none;fontSize=12;fontFamily=Helvetica;fontColor=#330000;" parent="1" vertex="1">
          <mxGeometry x="272" y="3337.5" width="110" height="50" as="geometry" />
        </mxCell>
        <mxCell id="cWEXN-bF3hbhIx2hcadV-256" style="edgeStyle=orthogonalEdgeStyle;rounded=0;orthogonalLoop=1;jettySize=auto;html=1;entryX=0.086;entryY=0.388;entryDx=0;entryDy=0;entryPerimeter=0;fontFamily=Helvetica;fontSize=12;fontColor=#330000;" parent="1" source="cWEXN-bF3hbhIx2hcadV-226" target="cWEXN-bF3hbhIx2hcadV-229" edge="1">
          <mxGeometry relative="1" as="geometry" />
        </mxCell>
        <mxCell id="cWEXN-bF3hbhIx2hcadV-226" value="" style="shape=image;html=1;verticalAlign=top;verticalLabelPosition=bottom;labelBackgroundColor=#ffffff;imageAspect=0;aspect=fixed;image=https://cdn2.iconfinder.com/data/icons/atrous/512/search_binoculars_find-128.png;rounded=0;dashed=1;sketch=0;fontFamily=Helvetica;fontSize=11;fontColor=#330000;strokeColor=default;fillColor=none;gradientColor=none;" parent="1" vertex="1">
          <mxGeometry x="434" y="3279.5" width="58" height="58" as="geometry" />
        </mxCell>
        <mxCell id="cWEXN-bF3hbhIx2hcadV-227" value="Click&amp;nbsp; On&amp;nbsp;&lt;br&gt;Find Icon" style="text;html=1;align=center;verticalAlign=middle;resizable=0;points=[];autosize=1;strokeColor=none;fillColor=none;fontSize=11;fontFamily=Helvetica;fontColor=#330000;" parent="1" vertex="1">
          <mxGeometry x="428.5" y="3347.5" width="60" height="30" as="geometry" />
        </mxCell>
        <mxCell id="cWEXN-bF3hbhIx2hcadV-259" style="edgeStyle=orthogonalEdgeStyle;rounded=0;orthogonalLoop=1;jettySize=auto;html=1;entryX=1;entryY=0.5;entryDx=0;entryDy=0;fontFamily=Helvetica;fontSize=12;fontColor=#330000;" parent="1" source="cWEXN-bF3hbhIx2hcadV-229" target="cWEXN-bF3hbhIx2hcadV-232" edge="1">
          <mxGeometry relative="1" as="geometry">
            <Array as="points">
              <mxPoint x="637" y="3310" />
              <mxPoint x="637" y="3462" />
            </Array>
          </mxGeometry>
        </mxCell>
        <mxCell id="cWEXN-bF3hbhIx2hcadV-229" value="" style="shape=image;html=1;verticalAlign=top;verticalLabelPosition=bottom;labelBackgroundColor=#ffffff;imageAspect=0;aspect=fixed;image=https://cdn1.iconfinder.com/data/icons/iconoir-vol-2/24/frame-select-128.png;rounded=0;dashed=1;sketch=0;fontFamily=Helvetica;fontSize=11;fontColor=#330000;strokeColor=default;fillColor=none;gradientColor=none;" parent="1" vertex="1">
          <mxGeometry x="553" y="3286" width="58" height="58" as="geometry" />
        </mxCell>
        <mxCell id="cWEXN-bF3hbhIx2hcadV-230" value="Select Provider &lt;br&gt;from Dropdown" style="text;html=1;align=center;verticalAlign=middle;resizable=0;points=[];autosize=1;strokeColor=none;fillColor=none;fontSize=11;fontFamily=Helvetica;fontColor=#330000;" parent="1" vertex="1">
          <mxGeometry x="536" y="3344" width="90" height="30" as="geometry" />
        </mxCell>
        <mxCell id="cWEXN-bF3hbhIx2hcadV-258" style="edgeStyle=orthogonalEdgeStyle;rounded=0;orthogonalLoop=1;jettySize=auto;html=1;fontFamily=Helvetica;fontSize=12;fontColor=#330000;" parent="1" source="cWEXN-bF3hbhIx2hcadV-232" edge="1">
          <mxGeometry relative="1" as="geometry">
            <mxPoint x="478" y="3461.5" as="targetPoint" />
          </mxGeometry>
        </mxCell>
        <mxCell id="cWEXN-bF3hbhIx2hcadV-232" value="" style="shape=image;html=1;verticalAlign=top;verticalLabelPosition=bottom;labelBackgroundColor=#ffffff;imageAspect=0;aspect=fixed;image=https://cdn4.iconfinder.com/data/icons/evil-icons-user-interface/64/pen-128.png;rounded=0;dashed=1;sketch=0;fontFamily=Helvetica;fontSize=11;fontColor=#330000;strokeColor=default;fillColor=none;gradientColor=none;" parent="1" vertex="1">
          <mxGeometry x="554" y="3430" width="63" height="63" as="geometry" />
        </mxCell>
        <mxCell id="cWEXN-bF3hbhIx2hcadV-233" value="Enter Provider&amp;nbsp;&lt;br&gt;Number" style="text;html=1;align=center;verticalAlign=middle;resizable=0;points=[];autosize=1;strokeColor=none;fillColor=none;fontSize=11;fontFamily=Helvetica;fontColor=#330000;" parent="1" vertex="1">
          <mxGeometry x="538" y="3488" width="90" height="30" as="geometry" />
        </mxCell>
        <mxCell id="cWEXN-bF3hbhIx2hcadV-234" style="edgeStyle=orthogonalEdgeStyle;rounded=0;orthogonalLoop=1;jettySize=auto;html=1;fontFamily=Helvetica;fontSize=11;fontColor=#330000;" parent="1" source="cWEXN-bF3hbhIx2hcadV-235" edge="1">
          <mxGeometry relative="1" as="geometry">
            <mxPoint x="342" y="3461.5" as="targetPoint" />
          </mxGeometry>
        </mxCell>
        <mxCell id="cWEXN-bF3hbhIx2hcadV-235" value="Find" style="html=1;shadow=0;dashed=0;shape=mxgraph.bootstrap.rrect;rSize=5;strokeColor=none;strokeWidth=1;fillColor=#343A40;fontColor=#ffffff;whiteSpace=wrap;align=center;verticalAlign=middle;spacingLeft=0;fontStyle=0;fontSize=16;spacing=5;rounded=0;sketch=0;fontFamily=Helvetica;" parent="1" vertex="1">
          <mxGeometry x="409" y="3441.5" width="60" height="40" as="geometry" />
        </mxCell>
        <mxCell id="cWEXN-bF3hbhIx2hcadV-236" value="Click On&lt;br&gt;Find Button" style="text;html=1;align=center;verticalAlign=middle;resizable=0;points=[];autosize=1;strokeColor=none;fillColor=none;fontSize=11;fontFamily=Helvetica;fontColor=#330000;" parent="1" vertex="1">
          <mxGeometry x="407" y="3488" width="70" height="30" as="geometry" />
        </mxCell>
        <mxCell id="cWEXN-bF3hbhIx2hcadV-260" style="edgeStyle=orthogonalEdgeStyle;rounded=0;orthogonalLoop=1;jettySize=auto;html=1;entryX=1;entryY=0.5;entryDx=0;entryDy=0;fontFamily=Helvetica;fontSize=12;fontColor=#330000;" parent="1" source="cWEXN-bF3hbhIx2hcadV-238" target="cWEXN-bF3hbhIx2hcadV-241" edge="1">
          <mxGeometry relative="1" as="geometry" />
        </mxCell>
        <mxCell id="cWEXN-bF3hbhIx2hcadV-238" value="" style="shape=image;html=1;verticalAlign=top;verticalLabelPosition=bottom;labelBackgroundColor=#ffffff;imageAspect=0;aspect=fixed;image=https://cdn1.iconfinder.com/data/icons/science-technology-outline-24-px/24/Body_organ_eye_optical_view_visual-128.png;rounded=0;dashed=1;sketch=0;fontFamily=Helvetica;fontSize=11;fontColor=#330000;strokeColor=default;fillColor=none;gradientColor=none;" parent="1" vertex="1">
          <mxGeometry x="287" y="3438" width="50" height="50" as="geometry" />
        </mxCell>
        <mxCell id="cWEXN-bF3hbhIx2hcadV-239" value="Click On View &lt;br&gt;Record" style="text;html=1;align=center;verticalAlign=middle;resizable=0;points=[];autosize=1;strokeColor=none;fillColor=none;fontSize=11;fontFamily=Helvetica;fontColor=#330000;" parent="1" vertex="1">
          <mxGeometry x="274" y="3486" width="80" height="30" as="geometry" />
        </mxCell>
        <mxCell id="cWEXN-bF3hbhIx2hcadV-262" style="edgeStyle=orthogonalEdgeStyle;rounded=0;orthogonalLoop=1;jettySize=auto;html=1;entryX=0;entryY=0.5;entryDx=0;entryDy=0;fontFamily=Helvetica;fontSize=12;fontColor=#330000;" parent="1" source="cWEXN-bF3hbhIx2hcadV-241" target="cWEXN-bF3hbhIx2hcadV-261" edge="1">
          <mxGeometry relative="1" as="geometry">
            <Array as="points">
              <mxPoint x="148" y="3470" />
              <mxPoint x="148" y="3604" />
            </Array>
          </mxGeometry>
        </mxCell>
        <mxCell id="cWEXN-bF3hbhIx2hcadV-241" value="" style="shape=image;html=1;verticalAlign=top;verticalLabelPosition=bottom;labelBackgroundColor=#ffffff;imageAspect=0;aspect=fixed;image=https://cdn2.iconfinder.com/data/icons/boxicons-solid-vol-1/24/bxs-calendar-edit-128.png;rounded=0;dashed=1;sketch=0;fontFamily=Helvetica;fontSize=11;fontColor=#330000;strokeColor=default;fillColor=none;gradientColor=none;" parent="1" vertex="1">
          <mxGeometry x="169" y="3434" width="58" height="58" as="geometry" />
        </mxCell>
        <mxCell id="cWEXN-bF3hbhIx2hcadV-242" value="Click On &lt;br&gt;Edit" style="text;html=1;align=center;verticalAlign=middle;resizable=0;points=[];autosize=1;strokeColor=none;fillColor=none;fontSize=11;fontFamily=Helvetica;fontColor=#330000;" parent="1" vertex="1">
          <mxGeometry x="168" y="3492" width="60" height="30" as="geometry" />
        </mxCell>
        <mxCell id="cWEXN-bF3hbhIx2hcadV-246" style="edgeStyle=orthogonalEdgeStyle;rounded=0;orthogonalLoop=1;jettySize=auto;html=1;entryX=0;entryY=0.5;entryDx=0;entryDy=0;fontFamily=Helvetica;fontSize=11;fontColor=#330000;" parent="1" target="cWEXN-bF3hbhIx2hcadV-249" edge="1">
          <mxGeometry relative="1" as="geometry">
            <mxPoint x="224.5" y="3609" as="sourcePoint" />
          </mxGeometry>
        </mxCell>
        <mxCell id="cWEXN-bF3hbhIx2hcadV-249" value="" style="shape=image;html=1;verticalAlign=top;verticalLabelPosition=bottom;labelBackgroundColor=#ffffff;imageAspect=0;aspect=fixed;image=https://cdn1.iconfinder.com/data/icons/ionicons-fill-vol-2/512/save-128.png;rounded=0;dashed=1;sketch=0;fontFamily=Helvetica;fontSize=11;fontColor=#330000;strokeColor=default;fillColor=none;gradientColor=none;" parent="1" vertex="1">
          <mxGeometry x="315" y="3579.5" width="58" height="59" as="geometry" />
        </mxCell>
        <mxCell id="cWEXN-bF3hbhIx2hcadV-250" value="Click On &lt;br&gt;Save" style="text;html=1;align=center;verticalAlign=middle;resizable=0;points=[];autosize=1;strokeColor=none;fillColor=none;fontSize=11;fontFamily=Helvetica;fontColor=#330000;" parent="1" vertex="1">
          <mxGeometry x="310" y="3635" width="60" height="30" as="geometry" />
        </mxCell>
        <mxCell id="cWEXN-bF3hbhIx2hcadV-251" value="&lt;span style=&quot;font-size: 12px;&quot;&gt;&lt;b&gt;Update Vendor Compliance Rating&lt;/b&gt;&lt;/span&gt;" style="text;html=1;align=center;verticalAlign=middle;resizable=0;points=[];autosize=1;strokeColor=none;fillColor=none;fontSize=11;fontFamily=Helvetica;fontColor=#330000;" parent="1" vertex="1">
          <mxGeometry x="453" y="3240" width="210" height="20" as="geometry" />
        </mxCell>
        <mxCell id="cWEXN-bF3hbhIx2hcadV-261" value="" style="shape=image;html=1;verticalAlign=top;verticalLabelPosition=bottom;labelBackgroundColor=#ffffff;imageAspect=0;aspect=fixed;image=https://cdn3.iconfinder.com/data/icons/survey-rating/512/Survey_rating_rate-20-128.png;rounded=0;dashed=1;sketch=0;fontFamily=Helvetica;fontSize=12;fontColor=#330000;strokeColor=default;fillColor=none;gradientColor=none;" parent="1" vertex="1">
          <mxGeometry x="168" y="3568.5" width="70" height="70" as="geometry" />
        </mxCell>
        <mxCell id="cWEXN-bF3hbhIx2hcadV-263" value="&lt;font style=&quot;font-size: 11px;&quot;&gt;Enter Rating&lt;/font&gt;" style="text;html=1;align=center;verticalAlign=middle;resizable=0;points=[];autosize=1;strokeColor=none;fillColor=none;fontSize=12;fontFamily=Helvetica;fontColor=#330000;" parent="1" vertex="1">
          <mxGeometry x="154.7" y="3635" width="80" height="20" as="geometry" />
        </mxCell>
        <mxCell id="cWEXN-bF3hbhIx2hcadV-270" style="edgeStyle=orthogonalEdgeStyle;rounded=0;orthogonalLoop=1;jettySize=auto;html=1;fontFamily=Helvetica;fontSize=11;fontColor=#330000;" parent="1" edge="1">
          <mxGeometry relative="1" as="geometry">
            <mxPoint x="356.5" y="3798.5" as="targetPoint" />
            <mxPoint x="284.70000000000005" y="3798.5" as="sourcePoint" />
          </mxGeometry>
        </mxCell>
        <mxCell id="cWEXN-bF3hbhIx2hcadV-272" value="&lt;font style=&quot;font-size: 11px;&quot;&gt;Navigate To VMS &lt;br&gt;Portal&lt;/font&gt;" style="text;html=1;align=center;verticalAlign=middle;resizable=0;points=[];autosize=1;strokeColor=none;fillColor=none;fontSize=12;fontFamily=Helvetica;fontColor=#330000;" parent="1" vertex="1">
          <mxGeometry x="191.5" y="3834" width="100" height="30" as="geometry" />
        </mxCell>
        <mxCell id="cWEXN-bF3hbhIx2hcadV-273" style="edgeStyle=orthogonalEdgeStyle;rounded=0;orthogonalLoop=1;jettySize=auto;html=1;fontFamily=Helvetica;fontSize=11;fontColor=#330000;" parent="1" source="cWEXN-bF3hbhIx2hcadV-274" edge="1">
          <mxGeometry relative="1" as="geometry">
            <mxPoint x="496.5" y="3798.5" as="targetPoint" />
          </mxGeometry>
        </mxCell>
        <mxCell id="cWEXN-bF3hbhIx2hcadV-274" value="" style="shape=image;html=1;verticalAlign=top;verticalLabelPosition=bottom;labelBackgroundColor=#ffffff;imageAspect=0;aspect=fixed;image=https://cdn1.iconfinder.com/data/icons/hawcons/32/699505-icon-27-one-finger-click-128.png;rounded=0;dashed=1;sketch=0;fontFamily=Helvetica;fontSize=12;fontColor=#330000;strokeColor=default;fillColor=none;gradientColor=none;" parent="1" vertex="1">
          <mxGeometry x="361.5" y="3769.5" width="58" height="58" as="geometry" />
        </mxCell>
        <mxCell id="cWEXN-bF3hbhIx2hcadV-275" value="&lt;font style=&quot;font-size: 11px;&quot;&gt;Click&amp;nbsp; on&amp;nbsp;&lt;br&gt;&amp;nbsp;Vendor Compliance &lt;br&gt;Form&lt;br&gt;&lt;/font&gt;" style="text;html=1;align=center;verticalAlign=middle;resizable=0;points=[];autosize=1;strokeColor=none;fillColor=none;fontSize=12;fontFamily=Helvetica;fontColor=#330000;" parent="1" vertex="1">
          <mxGeometry x="335.5" y="3827.5" width="110" height="50" as="geometry" />
        </mxCell>
        <mxCell id="cWEXN-bF3hbhIx2hcadV-276" style="edgeStyle=orthogonalEdgeStyle;rounded=0;orthogonalLoop=1;jettySize=auto;html=1;entryX=0.086;entryY=0.388;entryDx=0;entryDy=0;entryPerimeter=0;fontFamily=Helvetica;fontSize=12;fontColor=#330000;" parent="1" source="cWEXN-bF3hbhIx2hcadV-277" target="cWEXN-bF3hbhIx2hcadV-280" edge="1">
          <mxGeometry relative="1" as="geometry" />
        </mxCell>
        <mxCell id="cWEXN-bF3hbhIx2hcadV-277" value="" style="shape=image;html=1;verticalAlign=top;verticalLabelPosition=bottom;labelBackgroundColor=#ffffff;imageAspect=0;aspect=fixed;image=https://cdn2.iconfinder.com/data/icons/atrous/512/search_binoculars_find-128.png;rounded=0;dashed=1;sketch=0;fontFamily=Helvetica;fontSize=11;fontColor=#330000;strokeColor=default;fillColor=none;gradientColor=none;" parent="1" vertex="1">
          <mxGeometry x="497.5" y="3769.5" width="58" height="58" as="geometry" />
        </mxCell>
        <mxCell id="cWEXN-bF3hbhIx2hcadV-278" value="Click&amp;nbsp; On&amp;nbsp;&lt;br&gt;Find Icon" style="text;html=1;align=center;verticalAlign=middle;resizable=0;points=[];autosize=1;strokeColor=none;fillColor=none;fontSize=11;fontFamily=Helvetica;fontColor=#330000;" parent="1" vertex="1">
          <mxGeometry x="492" y="3837.5" width="60" height="30" as="geometry" />
        </mxCell>
        <mxCell id="cWEXN-bF3hbhIx2hcadV-279" style="edgeStyle=orthogonalEdgeStyle;rounded=0;orthogonalLoop=1;jettySize=auto;html=1;entryX=1;entryY=0.5;entryDx=0;entryDy=0;fontFamily=Helvetica;fontSize=12;fontColor=#330000;" parent="1" source="cWEXN-bF3hbhIx2hcadV-280" target="cWEXN-bF3hbhIx2hcadV-283" edge="1">
          <mxGeometry relative="1" as="geometry">
            <Array as="points">
              <mxPoint x="700.5" y="3800" />
              <mxPoint x="700.5" y="3952" />
            </Array>
          </mxGeometry>
        </mxCell>
        <mxCell id="cWEXN-bF3hbhIx2hcadV-280" value="" style="shape=image;html=1;verticalAlign=top;verticalLabelPosition=bottom;labelBackgroundColor=#ffffff;imageAspect=0;aspect=fixed;image=https://cdn1.iconfinder.com/data/icons/iconoir-vol-2/24/frame-select-128.png;rounded=0;dashed=1;sketch=0;fontFamily=Helvetica;fontSize=11;fontColor=#330000;strokeColor=default;fillColor=none;gradientColor=none;" parent="1" vertex="1">
          <mxGeometry x="616.5" y="3776" width="58" height="58" as="geometry" />
        </mxCell>
        <mxCell id="cWEXN-bF3hbhIx2hcadV-281" value="Select Provider &lt;br&gt;from Dropdown" style="text;html=1;align=center;verticalAlign=middle;resizable=0;points=[];autosize=1;strokeColor=none;fillColor=none;fontSize=11;fontFamily=Helvetica;fontColor=#330000;" parent="1" vertex="1">
          <mxGeometry x="599.5" y="3834" width="90" height="30" as="geometry" />
        </mxCell>
        <mxCell id="cWEXN-bF3hbhIx2hcadV-282" style="edgeStyle=orthogonalEdgeStyle;rounded=0;orthogonalLoop=1;jettySize=auto;html=1;fontFamily=Helvetica;fontSize=12;fontColor=#330000;" parent="1" source="cWEXN-bF3hbhIx2hcadV-283" edge="1">
          <mxGeometry relative="1" as="geometry">
            <mxPoint x="541.5" y="3951.5" as="targetPoint" />
          </mxGeometry>
        </mxCell>
        <mxCell id="cWEXN-bF3hbhIx2hcadV-283" value="" style="shape=image;html=1;verticalAlign=top;verticalLabelPosition=bottom;labelBackgroundColor=#ffffff;imageAspect=0;aspect=fixed;image=https://cdn4.iconfinder.com/data/icons/evil-icons-user-interface/64/pen-128.png;rounded=0;dashed=1;sketch=0;fontFamily=Helvetica;fontSize=11;fontColor=#330000;strokeColor=default;fillColor=none;gradientColor=none;" parent="1" vertex="1">
          <mxGeometry x="617.5" y="3920" width="63" height="63" as="geometry" />
        </mxCell>
        <mxCell id="cWEXN-bF3hbhIx2hcadV-284" value="Enter Provider&amp;nbsp;&lt;br&gt;Number" style="text;html=1;align=center;verticalAlign=middle;resizable=0;points=[];autosize=1;strokeColor=none;fillColor=none;fontSize=11;fontFamily=Helvetica;fontColor=#330000;" parent="1" vertex="1">
          <mxGeometry x="601.5" y="3978" width="90" height="30" as="geometry" />
        </mxCell>
        <mxCell id="cWEXN-bF3hbhIx2hcadV-285" style="edgeStyle=orthogonalEdgeStyle;rounded=0;orthogonalLoop=1;jettySize=auto;html=1;fontFamily=Helvetica;fontSize=11;fontColor=#330000;" parent="1" source="cWEXN-bF3hbhIx2hcadV-286" edge="1">
          <mxGeometry relative="1" as="geometry">
            <mxPoint x="405.5" y="3951.5" as="targetPoint" />
          </mxGeometry>
        </mxCell>
        <mxCell id="cWEXN-bF3hbhIx2hcadV-286" value="Find" style="html=1;shadow=0;dashed=0;shape=mxgraph.bootstrap.rrect;rSize=5;strokeColor=none;strokeWidth=1;fillColor=#343A40;fontColor=#ffffff;whiteSpace=wrap;align=center;verticalAlign=middle;spacingLeft=0;fontStyle=0;fontSize=16;spacing=5;rounded=0;sketch=0;fontFamily=Helvetica;" parent="1" vertex="1">
          <mxGeometry x="472.5" y="3931.5" width="60" height="40" as="geometry" />
        </mxCell>
        <mxCell id="cWEXN-bF3hbhIx2hcadV-287" value="Click On&lt;br&gt;Find Button" style="text;html=1;align=center;verticalAlign=middle;resizable=0;points=[];autosize=1;strokeColor=none;fillColor=none;fontSize=11;fontFamily=Helvetica;fontColor=#330000;" parent="1" vertex="1">
          <mxGeometry x="470.5" y="3978" width="70" height="30" as="geometry" />
        </mxCell>
        <mxCell id="cWEXN-bF3hbhIx2hcadV-288" style="edgeStyle=orthogonalEdgeStyle;rounded=0;orthogonalLoop=1;jettySize=auto;html=1;entryX=1;entryY=0.5;entryDx=0;entryDy=0;fontFamily=Helvetica;fontSize=12;fontColor=#330000;" parent="1" target="cWEXN-bF3hbhIx2hcadV-292" edge="1">
          <mxGeometry relative="1" as="geometry">
            <mxPoint x="350.5" y="3953" as="sourcePoint" />
          </mxGeometry>
        </mxCell>
        <mxCell id="cWEXN-bF3hbhIx2hcadV-318" style="edgeStyle=orthogonalEdgeStyle;rounded=0;orthogonalLoop=1;jettySize=auto;html=1;entryX=-0.004;entryY=0.543;entryDx=0;entryDy=0;entryPerimeter=0;fontFamily=Helvetica;fontSize=11;fontColor=#330000;" parent="1" source="cWEXN-bF3hbhIx2hcadV-292" target="cWEXN-bF3hbhIx2hcadV-303" edge="1">
          <mxGeometry relative="1" as="geometry">
            <Array as="points">
              <mxPoint x="160.5" y="3953" />
              <mxPoint x="160.5" y="4317" />
            </Array>
          </mxGeometry>
        </mxCell>
        <mxCell id="cWEXN-bF3hbhIx2hcadV-292" value="" style="shape=image;html=1;verticalAlign=top;verticalLabelPosition=bottom;labelBackgroundColor=#ffffff;imageAspect=0;aspect=fixed;image=https://cdn2.iconfinder.com/data/icons/boxicons-solid-vol-1/24/bxs-calendar-edit-128.png;rounded=0;dashed=1;sketch=0;fontFamily=Helvetica;fontSize=11;fontColor=#330000;strokeColor=default;fillColor=none;gradientColor=none;" parent="1" vertex="1">
          <mxGeometry x="232.5" y="3924" width="58" height="58" as="geometry" />
        </mxCell>
        <mxCell id="cWEXN-bF3hbhIx2hcadV-293" value="Click On &lt;br&gt;Edit" style="text;html=1;align=center;verticalAlign=middle;resizable=0;points=[];autosize=1;strokeColor=none;fillColor=none;fontSize=11;fontFamily=Helvetica;fontColor=#330000;" parent="1" vertex="1">
          <mxGeometry x="231.5" y="3982" width="60" height="30" as="geometry" />
        </mxCell>
        <mxCell id="cWEXN-bF3hbhIx2hcadV-297" value="&lt;span style=&quot;font-size: 12px;&quot;&gt;&lt;b&gt;Create Generic CAP&lt;/b&gt;&lt;/span&gt;" style="text;html=1;align=center;verticalAlign=middle;resizable=0;points=[];autosize=1;strokeColor=none;fillColor=none;fontSize=11;fontFamily=Helvetica;fontColor=#330000;" parent="1" vertex="1">
          <mxGeometry x="556.5" y="3723" width="130" height="20" as="geometry" />
        </mxCell>
        <mxCell id="cWEXN-bF3hbhIx2hcadV-300" value="" style="shape=image;html=1;verticalAlign=top;verticalLabelPosition=bottom;labelBackgroundColor=#ffffff;imageAspect=0;aspect=fixed;image=https://cdn1.iconfinder.com/data/icons/ionicons-sharp-vol-2/512/navigate-sharp-128.png;rounded=0;dashed=1;sketch=0;fontFamily=Helvetica;fontSize=11;fontColor=#330000;strokeColor=default;fillColor=none;gradientColor=none;" parent="1" vertex="1">
          <mxGeometry x="209.5" y="3773" width="66" height="66" as="geometry" />
        </mxCell>
        <mxCell id="cWEXN-bF3hbhIx2hcadV-301" value="" style="shape=image;html=1;verticalAlign=top;verticalLabelPosition=bottom;labelBackgroundColor=#ffffff;imageAspect=0;aspect=fixed;image=https://cdn3.iconfinder.com/data/icons/energy-and-power-glyph-24-px/24/Hard_hat_mine_cap_mine_hat_mine_helmet_miner_hat-128.png;rounded=0;dashed=1;sketch=0;fontFamily=Helvetica;fontSize=11;fontColor=#330000;strokeColor=default;fillColor=none;gradientColor=none;" parent="1" vertex="1">
          <mxGeometry x="348.5" y="3921" width="58" height="58" as="geometry" />
        </mxCell>
        <mxCell id="cWEXN-bF3hbhIx2hcadV-302" value="Click On Generic&amp;nbsp;&lt;br&gt;CAP" style="text;html=1;align=center;verticalAlign=middle;resizable=0;points=[];autosize=1;strokeColor=none;fillColor=none;fontSize=11;fontFamily=Helvetica;fontColor=#330000;" parent="1" vertex="1">
          <mxGeometry x="330.5" y="3978" width="100" height="30" as="geometry" />
        </mxCell>
        <mxCell id="cWEXN-bF3hbhIx2hcadV-320" style="edgeStyle=orthogonalEdgeStyle;rounded=0;orthogonalLoop=1;jettySize=auto;html=1;entryX=0.5;entryY=0;entryDx=0;entryDy=0;fontFamily=Helvetica;fontSize=11;fontColor=#330000;" parent="1" source="cWEXN-bF3hbhIx2hcadV-303" target="cWEXN-bF3hbhIx2hcadV-319" edge="1">
          <mxGeometry relative="1" as="geometry" />
        </mxCell>
        <mxCell id="cWEXN-bF3hbhIx2hcadV-303" value="" style="rounded=0;whiteSpace=wrap;html=1;sketch=0;fontFamily=Helvetica;fontSize=11;fontColor=#330000;strokeColor=default;fillColor=none;gradientColor=none;" parent="1" vertex="1">
          <mxGeometry x="288.5" y="4100" width="232" height="400" as="geometry" />
        </mxCell>
        <mxCell id="cWEXN-bF3hbhIx2hcadV-304" value="For Each Records - Open Non-Compliance&amp;nbsp; and &lt;br&gt;New Non Compliances" style="text;html=1;align=center;verticalAlign=middle;resizable=0;points=[];autosize=1;strokeColor=none;fillColor=none;fontSize=11;fontFamily=Helvetica;fontColor=#330000;" parent="1" vertex="1">
          <mxGeometry x="263.7" y="4070" width="250" height="30" as="geometry" />
        </mxCell>
        <mxCell id="cWEXN-bF3hbhIx2hcadV-307" value="" style="shape=image;html=1;verticalAlign=top;verticalLabelPosition=bottom;labelBackgroundColor=#ffffff;imageAspect=0;aspect=fixed;image=https://cdn0.iconfinder.com/data/icons/google-material-design-3-0/48/ic_add_box_48px-128.png;rounded=0;sketch=0;fontFamily=Helvetica;fontSize=11;fontColor=#330000;strokeColor=default;fillColor=none;gradientColor=none;" parent="1" vertex="1">
          <mxGeometry x="421.5" y="4109.5" width="41" height="41" as="geometry" />
        </mxCell>
        <mxCell id="cWEXN-bF3hbhIx2hcadV-308" value="&lt;span style=&quot;&quot;&gt;Click On Add&lt;/span&gt;" style="text;html=1;align=center;verticalAlign=middle;resizable=0;points=[];autosize=1;strokeColor=none;fillColor=none;fontSize=11;fontFamily=Helvetica;fontColor=#330000;" parent="1" vertex="1">
          <mxGeometry x="309.5" y="4120" width="80" height="20" as="geometry" />
        </mxCell>
        <mxCell id="cWEXN-bF3hbhIx2hcadV-310" value="" style="shape=image;html=1;verticalAlign=top;verticalLabelPosition=bottom;labelBackgroundColor=#ffffff;imageAspect=0;aspect=fixed;image=https://cdn0.iconfinder.com/data/icons/google-material-design-3-0/48/ic_description_48px-128.png;rounded=0;sketch=0;fontFamily=Helvetica;fontSize=11;fontColor=#330000;strokeColor=default;fillColor=none;gradientColor=none;" parent="1" vertex="1">
          <mxGeometry x="417.5" y="4170" width="55" height="55" as="geometry" />
        </mxCell>
        <mxCell id="cWEXN-bF3hbhIx2hcadV-311" value="Enter Issue &lt;br&gt;Description -&lt;br&gt;&amp;nbsp;ID &amp;amp; Finding" style="text;html=1;align=center;verticalAlign=middle;resizable=0;points=[];autosize=1;strokeColor=none;fillColor=none;fontSize=11;fontFamily=Helvetica;fontColor=#330000;" parent="1" vertex="1">
          <mxGeometry x="300.5" y="4177.5" width="80" height="40" as="geometry" />
        </mxCell>
        <mxCell id="cWEXN-bF3hbhIx2hcadV-312" value="" style="shape=image;html=1;verticalAlign=top;verticalLabelPosition=bottom;labelBackgroundColor=#ffffff;imageAspect=0;aspect=fixed;image=https://cdn0.iconfinder.com/data/icons/business-startup-10/50/35-128.png;rounded=0;sketch=0;fontFamily=Helvetica;fontSize=11;fontColor=#330000;strokeColor=default;fillColor=none;gradientColor=none;" parent="1" vertex="1">
          <mxGeometry x="422.5" y="4250" width="64" height="64" as="geometry" />
        </mxCell>
        <mxCell id="cWEXN-bF3hbhIx2hcadV-313" value="Enter Issue on As &lt;br&gt;Verification Date" style="text;html=1;align=center;verticalAlign=middle;resizable=0;points=[];autosize=1;strokeColor=none;fillColor=none;fontSize=11;fontFamily=Helvetica;fontColor=#330000;" parent="1" vertex="1">
          <mxGeometry x="292.5" y="4270" width="100" height="30" as="geometry" />
        </mxCell>
        <mxCell id="cWEXN-bF3hbhIx2hcadV-314" value="" style="shape=image;html=1;verticalAlign=top;verticalLabelPosition=bottom;labelBackgroundColor=#ffffff;imageAspect=0;aspect=fixed;image=https://cdn1.iconfinder.com/data/icons/competitive-strategy-and-corporate-training/512/596_Admin_console_panel_root_software_game_gaming_genres_programing-128.png;rounded=0;sketch=0;fontFamily=Helvetica;fontSize=11;fontColor=#330000;strokeColor=default;fillColor=none;gradientColor=none;" parent="1" vertex="1">
          <mxGeometry x="419.5" y="4340" width="81" height="81" as="geometry" />
        </mxCell>
        <mxCell id="cWEXN-bF3hbhIx2hcadV-315" value="Enter Root Cause &lt;br&gt;As Auditor&#39;s Comment" style="text;html=1;align=center;verticalAlign=middle;resizable=0;points=[];autosize=1;strokeColor=none;fillColor=none;fontSize=11;fontFamily=Helvetica;fontColor=#330000;" parent="1" vertex="1">
          <mxGeometry x="286.5" y="4360" width="120" height="30" as="geometry" />
        </mxCell>
        <mxCell id="cWEXN-bF3hbhIx2hcadV-316" value="" style="shape=image;html=1;verticalAlign=top;verticalLabelPosition=bottom;labelBackgroundColor=#ffffff;imageAspect=0;aspect=fixed;image=https://cdn4.iconfinder.com/data/icons/essentials-72/24/011_-_Calendar-128.png;rounded=0;sketch=0;fontFamily=Helvetica;fontSize=11;fontColor=#330000;strokeColor=default;fillColor=none;gradientColor=none;" parent="1" vertex="1">
          <mxGeometry x="457" y="4440" width="46" height="46" as="geometry" />
        </mxCell>
        <mxCell id="cWEXN-bF3hbhIx2hcadV-317" value="Enter Solution Planned Date as &lt;br&gt;Verification Date + 30 Days" style="text;html=1;align=center;verticalAlign=middle;resizable=0;points=[];autosize=1;strokeColor=none;fillColor=none;fontSize=11;fontFamily=Helvetica;fontColor=#330000;" parent="1" vertex="1">
          <mxGeometry x="292.5" y="4440" width="170" height="30" as="geometry" />
        </mxCell>
        <mxCell id="zL2r4gQqmG1PpCrWWyj4-22" style="edgeStyle=orthogonalEdgeStyle;rounded=0;orthogonalLoop=1;jettySize=auto;html=1;fontSize=11;" parent="1" source="cWEXN-bF3hbhIx2hcadV-319" target="zL2r4gQqmG1PpCrWWyj4-20" edge="1">
          <mxGeometry relative="1" as="geometry">
            <Array as="points">
              <mxPoint x="470" y="4560" />
              <mxPoint x="470" y="4560" />
            </Array>
          </mxGeometry>
        </mxCell>
        <mxCell id="cWEXN-bF3hbhIx2hcadV-319" value="" style="shape=image;html=1;verticalAlign=top;verticalLabelPosition=bottom;labelBackgroundColor=#ffffff;imageAspect=0;aspect=fixed;image=https://cdn2.iconfinder.com/data/icons/crystalproject/128x128/devices/3floppy_unmount.png;rounded=0;sketch=0;fontFamily=Helvetica;fontSize=11;fontColor=#330000;strokeColor=default;fillColor=none;gradientColor=none;" parent="1" vertex="1">
          <mxGeometry x="367.5" y="4528" width="74" height="74" as="geometry" />
        </mxCell>
        <mxCell id="cWEXN-bF3hbhIx2hcadV-321" value="Click On &lt;br&gt;Save" style="text;html=1;align=center;verticalAlign=middle;resizable=0;points=[];autosize=1;strokeColor=none;fillColor=none;fontSize=11;fontFamily=Helvetica;fontColor=#330000;" parent="1" vertex="1">
          <mxGeometry x="370.5" y="4602" width="60" height="30" as="geometry" />
        </mxCell>
        <mxCell id="cWEXN-bF3hbhIx2hcadV-324" value="&lt;font style=&quot;font-size: 12px;&quot;&gt;&lt;b&gt;VMSCollaboration&lt;/b&gt;&lt;/font&gt;" style="text;html=1;align=center;verticalAlign=middle;resizable=0;points=[];autosize=1;strokeColor=none;fillColor=none;fontSize=11;fontFamily=Helvetica;fontColor=#330000;" parent="1" vertex="1">
          <mxGeometry x="500" y="4860" width="120" height="20" as="geometry" />
        </mxCell>
        <mxCell id="cWEXN-bF3hbhIx2hcadV-331" style="edgeStyle=orthogonalEdgeStyle;rounded=0;orthogonalLoop=1;jettySize=auto;html=1;fontFamily=Helvetica;fontSize=11;fontColor=#330000;" parent="1" source="cWEXN-bF3hbhIx2hcadV-326" edge="1">
          <mxGeometry relative="1" as="geometry">
            <mxPoint x="274" y="4917" as="targetPoint" />
          </mxGeometry>
        </mxCell>
        <mxCell id="cWEXN-bF3hbhIx2hcadV-326" value="" style="shape=image;html=1;verticalAlign=top;verticalLabelPosition=bottom;labelBackgroundColor=#ffffff;imageAspect=0;aspect=fixed;image=https://cdn3.iconfinder.com/data/icons/arrows-set-12/512/sendarrow-128.png;rounded=0;sketch=0;fontFamily=Helvetica;fontSize=11;fontColor=#330000;strokeColor=default;fillColor=none;gradientColor=none;" parent="1" vertex="1">
          <mxGeometry x="148" y="4890" width="54" height="54" as="geometry" />
        </mxCell>
        <mxCell id="cWEXN-bF3hbhIx2hcadV-327" value="Go To VMS Portal" style="text;html=1;align=center;verticalAlign=middle;resizable=0;points=[];autosize=1;strokeColor=none;fillColor=none;fontSize=11;fontFamily=Helvetica;fontColor=#330000;" parent="1" vertex="1">
          <mxGeometry x="129" y="4950" width="100" height="20" as="geometry" />
        </mxCell>
        <mxCell id="cWEXN-bF3hbhIx2hcadV-334" style="edgeStyle=orthogonalEdgeStyle;rounded=0;orthogonalLoop=1;jettySize=auto;html=1;fontFamily=Helvetica;fontSize=11;fontColor=#330000;" parent="1" source="cWEXN-bF3hbhIx2hcadV-328" edge="1">
          <mxGeometry relative="1" as="geometry">
            <mxPoint x="414" y="4918.25" as="targetPoint" />
          </mxGeometry>
        </mxCell>
        <mxCell id="cWEXN-bF3hbhIx2hcadV-328" value="" style="shape=image;html=1;verticalAlign=top;verticalLabelPosition=bottom;labelBackgroundColor=#ffffff;imageAspect=0;aspect=fixed;image=https://cdn4.iconfinder.com/data/icons/internet-networking-and-communication-glyph-24/24/Communication_discussion_online_collaboration_social_media_users-128.png;rounded=0;sketch=0;fontFamily=Helvetica;fontSize=11;fontColor=#330000;strokeColor=default;fillColor=none;gradientColor=none;" parent="1" vertex="1">
          <mxGeometry x="283" y="4890" width="56.5" height="56.5" as="geometry" />
        </mxCell>
        <mxCell id="cWEXN-bF3hbhIx2hcadV-329" value="Click On &lt;br&gt;Collaboration" style="text;html=1;align=center;verticalAlign=middle;resizable=0;points=[];autosize=1;strokeColor=none;fillColor=none;fontSize=11;fontFamily=Helvetica;fontColor=#330000;" parent="1" vertex="1">
          <mxGeometry x="264" y="4950" width="80" height="30" as="geometry" />
        </mxCell>
        <mxCell id="cWEXN-bF3hbhIx2hcadV-337" style="edgeStyle=orthogonalEdgeStyle;rounded=0;orthogonalLoop=1;jettySize=auto;html=1;fontFamily=Helvetica;fontSize=11;fontColor=#330000;" parent="1" source="cWEXN-bF3hbhIx2hcadV-332" edge="1">
          <mxGeometry relative="1" as="geometry">
            <mxPoint x="524" y="4921.625" as="targetPoint" />
          </mxGeometry>
        </mxCell>
        <mxCell id="cWEXN-bF3hbhIx2hcadV-332" value="" style="shape=image;html=1;verticalAlign=top;verticalLabelPosition=bottom;labelBackgroundColor=#ffffff;imageAspect=0;aspect=fixed;image=https://cdn0.iconfinder.com/data/icons/geosm-e-commerce/48/add-128.png;rounded=0;sketch=0;fontFamily=Helvetica;fontSize=11;fontColor=#330000;strokeColor=default;fillColor=none;gradientColor=none;" parent="1" vertex="1">
          <mxGeometry x="416" y="4893.25" width="56.75" height="56.75" as="geometry" />
        </mxCell>
        <mxCell id="cWEXN-bF3hbhIx2hcadV-335" value="Click On &lt;br&gt;New" style="text;html=1;align=center;verticalAlign=middle;resizable=0;points=[];autosize=1;strokeColor=none;fillColor=none;fontSize=11;fontFamily=Helvetica;fontColor=#330000;" parent="1" vertex="1">
          <mxGeometry x="411" y="4950" width="60" height="30" as="geometry" />
        </mxCell>
        <mxCell id="cWEXN-bF3hbhIx2hcadV-340" style="edgeStyle=orthogonalEdgeStyle;rounded=0;orthogonalLoop=1;jettySize=auto;html=1;fontFamily=Helvetica;fontSize=11;fontColor=#330000;" parent="1" source="cWEXN-bF3hbhIx2hcadV-336" edge="1">
          <mxGeometry relative="1" as="geometry">
            <Array as="points">
              <mxPoint x="664" y="4921.625" />
              <mxPoint x="664" y="5087" />
            </Array>
            <mxPoint x="596" y="5087" as="targetPoint" />
          </mxGeometry>
        </mxCell>
        <mxCell id="cWEXN-bF3hbhIx2hcadV-336" value="" style="shape=image;html=1;verticalAlign=top;verticalLabelPosition=bottom;labelBackgroundColor=#ffffff;imageAspect=0;aspect=fixed;image=https://cdn1.iconfinder.com/data/icons/ionicons-fill-vol-2/512/qr-code-128.png;rounded=0;sketch=0;fontFamily=Helvetica;fontSize=11;fontColor=#330000;strokeColor=default;fillColor=none;gradientColor=none;" parent="1" vertex="1">
          <mxGeometry x="539" y="4893.25" width="56.75" height="56.75" as="geometry" />
        </mxCell>
        <mxCell id="cWEXN-bF3hbhIx2hcadV-338" value="Select Issue Code -&lt;br&gt;&amp;nbsp;&amp;nbsp;&lt;b&gt;GSV CAP Generated&lt;/b&gt; &lt;br&gt;From Dropdown" style="text;html=1;align=center;verticalAlign=middle;resizable=0;points=[];autosize=1;strokeColor=none;fillColor=none;fontSize=11;fontFamily=Helvetica;fontColor=#330000;" parent="1" vertex="1">
          <mxGeometry x="504" y="4955" width="130" height="40" as="geometry" />
        </mxCell>
        <mxCell id="zL2r4gQqmG1PpCrWWyj4-2" style="edgeStyle=orthogonalEdgeStyle;rounded=0;orthogonalLoop=1;jettySize=auto;html=1;" parent="1" source="cWEXN-bF3hbhIx2hcadV-342" edge="1">
          <mxGeometry relative="1" as="geometry">
            <mxPoint x="450" y="5084.5" as="targetPoint" />
          </mxGeometry>
        </mxCell>
        <mxCell id="cWEXN-bF3hbhIx2hcadV-342" value="" style="shape=image;html=1;verticalAlign=top;verticalLabelPosition=bottom;labelBackgroundColor=#ffffff;imageAspect=0;aspect=fixed;image=https://cdn3.iconfinder.com/data/icons/finance-152/64/46-128.png;rounded=0;sketch=0;fontFamily=Helvetica;fontSize=11;fontColor=#330000;strokeColor=default;fillColor=none;gradientColor=none;" parent="1" vertex="1">
          <mxGeometry x="528.5" y="5049" width="71" height="71" as="geometry" />
        </mxCell>
        <mxCell id="cWEXN-bF3hbhIx2hcadV-344" value="Click On &lt;br&gt;Comments Tab" style="text;html=1;align=center;verticalAlign=middle;resizable=0;points=[];autosize=1;strokeColor=none;fillColor=none;fontSize=11;fontFamily=Helvetica;fontColor=#330000;" parent="1" vertex="1">
          <mxGeometry x="514" y="5120" width="90" height="30" as="geometry" />
        </mxCell>
        <mxCell id="zL2r4gQqmG1PpCrWWyj4-3" value="" style="edgeStyle=orthogonalEdgeStyle;rounded=0;orthogonalLoop=1;jettySize=auto;html=1;" parent="1" source="cWEXN-bF3hbhIx2hcadV-347" target="cWEXN-bF3hbhIx2hcadV-345" edge="1">
          <mxGeometry relative="1" as="geometry" />
        </mxCell>
        <mxCell id="cWEXN-bF3hbhIx2hcadV-347" value="Click On Attachment" style="text;html=1;align=center;verticalAlign=middle;resizable=0;points=[];autosize=1;strokeColor=none;fillColor=none;fontSize=11;fontFamily=Helvetica;fontColor=#330000;" parent="1" vertex="1">
          <mxGeometry x="348" y="5120" width="120" height="20" as="geometry" />
        </mxCell>
        <mxCell id="cWEXN-bF3hbhIx2hcadV-354" style="edgeStyle=orthogonalEdgeStyle;rounded=0;orthogonalLoop=1;jettySize=auto;html=1;entryX=0;entryY=0.5;entryDx=0;entryDy=0;fontFamily=Helvetica;fontSize=11;fontColor=#330000;" parent="1" source="cWEXN-bF3hbhIx2hcadV-349" target="cWEXN-bF3hbhIx2hcadV-353" edge="1">
          <mxGeometry relative="1" as="geometry">
            <Array as="points">
              <mxPoint x="160" y="5088" />
              <mxPoint x="160" y="5235" />
            </Array>
          </mxGeometry>
        </mxCell>
        <mxCell id="cWEXN-bF3hbhIx2hcadV-349" value="" style="shape=image;html=1;verticalAlign=top;verticalLabelPosition=bottom;labelBackgroundColor=#ffffff;imageAspect=0;aspect=fixed;image=https://cdn2.iconfinder.com/data/icons/software-engineering-and-video-gaming/512/611_Code_coding_compile_files_list-128.png;rounded=0;sketch=0;fontFamily=Helvetica;fontSize=11;fontColor=#330000;strokeColor=default;fillColor=none;gradientColor=none;" parent="1" vertex="1">
          <mxGeometry x="212" y="5053.5" width="69" height="69" as="geometry" />
        </mxCell>
        <mxCell id="cWEXN-bF3hbhIx2hcadV-352" value="Click On Select Files -&lt;br&gt;&amp;nbsp;GSV Output Report" style="text;html=1;align=center;verticalAlign=middle;resizable=0;points=[];autosize=1;strokeColor=none;fillColor=none;fontSize=11;fontFamily=Helvetica;fontColor=#330000;" parent="1" vertex="1">
          <mxGeometry x="193" y="5122.5" width="120" height="30" as="geometry" />
        </mxCell>
        <mxCell id="cWEXN-bF3hbhIx2hcadV-359" style="edgeStyle=orthogonalEdgeStyle;rounded=0;orthogonalLoop=1;jettySize=auto;html=1;fontFamily=Helvetica;fontSize=11;fontColor=#330000;" parent="1" source="cWEXN-bF3hbhIx2hcadV-353" edge="1">
          <mxGeometry relative="1" as="geometry">
            <mxPoint x="484" y="5234.5" as="targetPoint" />
          </mxGeometry>
        </mxCell>
        <mxCell id="cWEXN-bF3hbhIx2hcadV-353" value="" style="shape=image;html=1;verticalAlign=top;verticalLabelPosition=bottom;labelBackgroundColor=#ffffff;imageAspect=0;aspect=fixed;image=https://cdn1.iconfinder.com/data/icons/heroicons-ui/24/book-open-128.png;rounded=0;sketch=0;fontFamily=Helvetica;fontSize=11;fontColor=#330000;strokeColor=default;fillColor=none;gradientColor=none;" parent="1" vertex="1">
          <mxGeometry x="311" y="5201.5" width="66" height="66" as="geometry" />
        </mxCell>
        <mxCell id="cWEXN-bF3hbhIx2hcadV-357" value="Click On Open" style="text;html=1;align=center;verticalAlign=middle;resizable=0;points=[];autosize=1;strokeColor=none;fillColor=none;fontSize=11;fontFamily=Helvetica;fontColor=#330000;" parent="1" vertex="1">
          <mxGeometry x="298" y="5267.5" width="90" height="20" as="geometry" />
        </mxCell>
        <mxCell id="cWEXN-bF3hbhIx2hcadV-358" value="" style="shape=image;html=1;verticalAlign=top;verticalLabelPosition=bottom;labelBackgroundColor=#ffffff;imageAspect=0;aspect=fixed;image=https://cdn3.iconfinder.com/data/icons/UltimateGnome/128x128/actions/document-save-as.png;rounded=0;sketch=0;fontFamily=Helvetica;fontSize=11;fontColor=#330000;strokeColor=default;fillColor=none;gradientColor=none;" parent="1" vertex="1">
          <mxGeometry x="487.2" y="5210" width="65" height="65" as="geometry" />
        </mxCell>
        <mxCell id="cWEXN-bF3hbhIx2hcadV-361" value="Click On Save" style="text;html=1;align=center;verticalAlign=middle;resizable=0;points=[];autosize=1;strokeColor=none;fillColor=none;fontSize=11;fontFamily=Helvetica;fontColor=#330000;" parent="1" vertex="1">
          <mxGeometry x="466" y="5275" width="90" height="20" as="geometry" />
        </mxCell>
        <mxCell id="cWEXN-bF3hbhIx2hcadV-373" value="&lt;b&gt;Initialization&lt;/b&gt;" style="text;html=1;align=center;verticalAlign=middle;resizable=0;points=[];autosize=1;strokeColor=none;fillColor=none;fontSize=12;fontFamily=Helvetica;fontColor=#330000;" parent="1" vertex="1">
          <mxGeometry x="466" y="170" width="80" height="20" as="geometry" />
        </mxCell>
        <mxCell id="cWEXN-bF3hbhIx2hcadV-374" value="&lt;b&gt;Read Input&lt;/b&gt;" style="text;html=1;align=center;verticalAlign=middle;resizable=0;points=[];autosize=1;strokeColor=none;fillColor=none;fontSize=12;fontFamily=Helvetica;fontColor=#330000;" parent="1" vertex="1">
          <mxGeometry x="460" y="1160" width="80" height="20" as="geometry" />
        </mxCell>
        <mxCell id="cWEXN-bF3hbhIx2hcadV-378" style="edgeStyle=orthogonalEdgeStyle;rounded=0;orthogonalLoop=1;jettySize=auto;html=1;entryX=0.518;entryY=0.004;entryDx=0;entryDy=0;entryPerimeter=0;fontFamily=Helvetica;fontSize=12;fontColor=#330000;" parent="1" source="cWEXN-bF3hbhIx2hcadV-377" target="cWEXN-bF3hbhIx2hcadV-212" edge="1">
          <mxGeometry relative="1" as="geometry" />
        </mxCell>
        <mxCell id="kzUMAcGg5ozdKPCntmQN-8" style="edgeStyle=orthogonalEdgeStyle;rounded=0;orthogonalLoop=1;jettySize=auto;html=1;entryX=1;entryY=0.25;entryDx=0;entryDy=0;fontSize=12;" parent="1" source="kzUMAcGg5ozdKPCntmQN-7" target="cWEXN-bF3hbhIx2hcadV-114" edge="1">
          <mxGeometry relative="1" as="geometry">
            <Array as="points">
              <mxPoint x="800" y="3395" />
              <mxPoint x="800" y="1850" />
            </Array>
          </mxGeometry>
        </mxCell>
        <mxCell id="kzUMAcGg5ozdKPCntmQN-10" value="Success" style="edgeLabel;html=1;align=center;verticalAlign=middle;resizable=0;points=[];fontSize=12;fontStyle=1" parent="kzUMAcGg5ozdKPCntmQN-8" vertex="1" connectable="0">
          <mxGeometry x="0.8417" relative="1" as="geometry">
            <mxPoint as="offset" />
          </mxGeometry>
        </mxCell>
        <mxCell id="kzUMAcGg5ozdKPCntmQN-12" style="edgeStyle=orthogonalEdgeStyle;rounded=0;orthogonalLoop=1;jettySize=auto;html=1;entryX=1;entryY=0.75;entryDx=0;entryDy=0;fontSize=12;" parent="1" source="kzUMAcGg5ozdKPCntmQN-7" target="cWEXN-bF3hbhIx2hcadV-372" edge="1">
          <mxGeometry relative="1" as="geometry">
            <Array as="points">
              <mxPoint x="830" y="3590" />
              <mxPoint x="830" y="903" />
            </Array>
          </mxGeometry>
        </mxCell>
        <mxCell id="kzUMAcGg5ozdKPCntmQN-14" value="System Exception" style="edgeLabel;html=1;align=center;verticalAlign=middle;resizable=0;points=[];fontSize=12;rotation=270;fontStyle=1" parent="kzUMAcGg5ozdKPCntmQN-12" vertex="1" connectable="0">
          <mxGeometry x="0.6399" y="-2" relative="1" as="geometry">
            <mxPoint as="offset" />
          </mxGeometry>
        </mxCell>
        <mxCell id="kzUMAcGg5ozdKPCntmQN-16" value="&lt;b&gt;End Process&lt;/b&gt;" style="text;html=1;align=center;verticalAlign=middle;resizable=0;points=[];autosize=1;strokeColor=none;fillColor=none;fontSize=12;" parent="1" vertex="1">
          <mxGeometry x="453" y="5464" width="90" height="20" as="geometry" />
        </mxCell>
        <mxCell id="zL2r4gQqmG1PpCrWWyj4-4" style="edgeStyle=orthogonalEdgeStyle;rounded=0;orthogonalLoop=1;jettySize=auto;html=1;" parent="1" source="cWEXN-bF3hbhIx2hcadV-345" edge="1">
          <mxGeometry relative="1" as="geometry">
            <mxPoint x="280" y="5084.5" as="targetPoint" />
          </mxGeometry>
        </mxCell>
        <mxCell id="cWEXN-bF3hbhIx2hcadV-345" value="" style="shape=image;html=1;verticalAlign=top;verticalLabelPosition=bottom;labelBackgroundColor=#ffffff;imageAspect=0;aspect=fixed;image=https://cdn3.iconfinder.com/data/icons/user-interface-798/32/User_Interface_Attachment_file_attach_pin_UI-128.png;rounded=0;sketch=0;fontFamily=Helvetica;fontSize=11;fontColor=#330000;strokeColor=default;fillColor=none;gradientColor=none;" parent="1" vertex="1">
          <mxGeometry x="379.5" y="5053.5" width="62" height="62" as="geometry" />
        </mxCell>
        <mxCell id="zL2r4gQqmG1PpCrWWyj4-16" style="edgeStyle=orthogonalEdgeStyle;rounded=0;orthogonalLoop=1;jettySize=auto;html=1;entryX=0.028;entryY=0.473;entryDx=0;entryDy=0;entryPerimeter=0;" parent="1" source="zL2r4gQqmG1PpCrWWyj4-13" target="cWEXN-bF3hbhIx2hcadV-49" edge="1">
          <mxGeometry relative="1" as="geometry">
            <Array as="points">
              <mxPoint x="560" y="250" />
            </Array>
          </mxGeometry>
        </mxCell>
        <mxCell id="zL2r4gQqmG1PpCrWWyj4-13" value="" style="outlineConnect=0;dashed=0;verticalLabelPosition=bottom;verticalAlign=top;align=center;html=1;shape=mxgraph.aws3.table;fillColor=#2E73B8;gradientColor=none;" parent="1" vertex="1">
          <mxGeometry x="427" y="223.5" width="58" height="48" as="geometry" />
        </mxCell>
        <mxCell id="zL2r4gQqmG1PpCrWWyj4-17" value="&lt;font style=&quot;font-size: 11px;&quot;&gt;Initialize the Status&lt;br&gt;&amp;nbsp;DataTable&lt;/font&gt;" style="text;html=1;align=center;verticalAlign=middle;resizable=0;points=[];autosize=1;strokeColor=none;fillColor=none;" parent="1" vertex="1">
          <mxGeometry x="401" y="278" width="110" height="30" as="geometry" />
        </mxCell>
        <mxCell id="zL2r4gQqmG1PpCrWWyj4-19" value="" style="rounded=0;whiteSpace=wrap;html=1;fontSize=11;fillColor=none;" parent="1" vertex="1">
          <mxGeometry x="403" y="279" width="107" height="32" as="geometry" />
        </mxCell>
        <mxCell id="zL2r4gQqmG1PpCrWWyj4-20" value="" style="shape=image;html=1;verticalAlign=top;verticalLabelPosition=bottom;labelBackgroundColor=#ffffff;imageAspect=0;aspect=fixed;image=https://cdn0.iconfinder.com/data/icons/google-material-design-3-0/48/ic_playlist_add_48px-128.png;fontSize=11;fillColor=none;" parent="1" vertex="1">
          <mxGeometry x="537" y="4520" width="72" height="72" as="geometry" />
        </mxCell>
        <mxCell id="zL2r4gQqmG1PpCrWWyj4-23" value="Add the Data to the Status DataTable With Below:&lt;br&gt;-Provider Number&lt;br&gt;-Provider Name&lt;br&gt;- Status&amp;nbsp;&lt;br&gt;- Comments&lt;br&gt;- TimeStamp" style="text;html=1;align=left;verticalAlign=middle;resizable=0;points=[];autosize=1;strokeColor=none;fillColor=none;fontSize=11;" parent="1" vertex="1">
          <mxGeometry x="495" y="4582" width="260" height="80" as="geometry" />
        </mxCell>
        <mxCell id="zL2r4gQqmG1PpCrWWyj4-26" style="edgeStyle=orthogonalEdgeStyle;rounded=0;orthogonalLoop=1;jettySize=auto;html=1;entryX=0.561;entryY=0;entryDx=0;entryDy=0;entryPerimeter=0;fontSize=11;" parent="1" source="zL2r4gQqmG1PpCrWWyj4-24" target="cWEXN-bF3hbhIx2hcadV-362" edge="1">
          <mxGeometry relative="1" as="geometry" />
        </mxCell>
        <mxCell id="zL2r4gQqmG1PpCrWWyj4-24" value="" style="shape=image;html=1;verticalAlign=top;verticalLabelPosition=bottom;labelBackgroundColor=#ffffff;imageAspect=0;aspect=fixed;image=https://cdn0.iconfinder.com/data/icons/logos-microsoft-office-365/128/Microsoft_Office-02-128.png;fontSize=11;fillColor=none;" parent="1" vertex="1">
          <mxGeometry x="419.5" y="4790" width="41" height="41" as="geometry" />
        </mxCell>
        <mxCell id="zL2r4gQqmG1PpCrWWyj4-25" value="Write Status Data Table to GSV Output Report" style="text;html=1;align=center;verticalAlign=middle;resizable=0;points=[];autosize=1;strokeColor=none;fillColor=none;fontSize=11;" parent="1" vertex="1">
          <mxGeometry x="462" y="4800.5" width="240" height="20" as="geometry" />
        </mxCell>
        <mxCell id="lOJe0pKSbFGqu7hqZR1B-16" style="edgeStyle=orthogonalEdgeStyle;rounded=0;orthogonalLoop=1;jettySize=auto;html=1;entryX=0.5;entryY=0;entryDx=0;entryDy=0;" edge="1" parent="1" source="lOJe0pKSbFGqu7hqZR1B-2" target="lOJe0pKSbFGqu7hqZR1B-12">
          <mxGeometry relative="1" as="geometry" />
        </mxCell>
        <mxCell id="lOJe0pKSbFGqu7hqZR1B-2" value="" style="shape=image;html=1;verticalAlign=top;verticalLabelPosition=bottom;labelBackgroundColor=#ffffff;imageAspect=0;aspect=fixed;image=https://cdn0.iconfinder.com/data/icons/social-media-and-logos-11/32/Gmail_envelope_letter_email_Gmail_envelope_letter_email-128.png" vertex="1" parent="1">
          <mxGeometry x="264" y="5333" width="65" height="65" as="geometry" />
        </mxCell>
        <mxCell id="lOJe0pKSbFGqu7hqZR1B-3" value="Send Success&lt;br&gt;&amp;nbsp;Email" style="text;html=1;align=center;verticalAlign=middle;resizable=0;points=[];autosize=1;strokeColor=none;fillColor=none;" vertex="1" parent="1">
          <mxGeometry x="250" y="5390" width="90" height="30" as="geometry" />
        </mxCell>
        <mxCell id="lOJe0pKSbFGqu7hqZR1B-15" style="edgeStyle=orthogonalEdgeStyle;rounded=0;orthogonalLoop=1;jettySize=auto;html=1;entryX=0.5;entryY=0;entryDx=0;entryDy=0;" edge="1" parent="1" source="lOJe0pKSbFGqu7hqZR1B-9" target="lOJe0pKSbFGqu7hqZR1B-12">
          <mxGeometry relative="1" as="geometry" />
        </mxCell>
        <mxCell id="lOJe0pKSbFGqu7hqZR1B-9" value="" style="sketch=0;outlineConnect=0;fontColor=#232F3E;gradientColor=none;fillColor=#BF0816;strokeColor=none;dashed=0;verticalLabelPosition=bottom;verticalAlign=top;align=center;html=1;fontSize=12;fontStyle=0;aspect=fixed;shape=mxgraph.aws4.email;" vertex="1" parent="1">
          <mxGeometry x="5.7" y="5331" width="78" height="69" as="geometry" />
        </mxCell>
        <mxCell id="lOJe0pKSbFGqu7hqZR1B-10" value="Send Exception &lt;br&gt;Email" style="text;html=1;align=center;verticalAlign=middle;resizable=0;points=[];autosize=1;strokeColor=none;fillColor=none;" vertex="1" parent="1">
          <mxGeometry x="-0.3000000000000007" y="5402" width="100" height="30" as="geometry" />
        </mxCell>
        <mxCell id="lOJe0pKSbFGqu7hqZR1B-11" value="" style="shape=image;html=1;verticalAlign=top;verticalLabelPosition=bottom;labelBackgroundColor=#ffffff;imageAspect=0;aspect=fixed;image=https://cdn3.iconfinder.com/data/icons/mix-and-miscellaneous/93/cross_handrawn_close-128.png" vertex="1" parent="1">
          <mxGeometry x="462.5" y="5413" width="60" height="60" as="geometry" />
        </mxCell>
        <mxCell id="lOJe0pKSbFGqu7hqZR1B-17" style="edgeStyle=orthogonalEdgeStyle;rounded=0;orthogonalLoop=1;jettySize=auto;html=1;entryX=0;entryY=0.5;entryDx=0;entryDy=0;" edge="1" parent="1" source="lOJe0pKSbFGqu7hqZR1B-12" target="lOJe0pKSbFGqu7hqZR1B-11">
          <mxGeometry relative="1" as="geometry" />
        </mxCell>
        <mxCell id="lOJe0pKSbFGqu7hqZR1B-12" value="" style="shape=image;html=1;verticalAlign=top;verticalLabelPosition=bottom;labelBackgroundColor=#ffffff;imageAspect=0;aspect=fixed;image=https://cdn3.iconfinder.com/data/icons/ilb/Cute%20Ball%20-%20Stop.png" vertex="1" parent="1">
          <mxGeometry x="146" y="5413" width="59" height="59" as="geometry" />
        </mxCell>
        <mxCell id="lOJe0pKSbFGqu7hqZR1B-13" value="Close All &lt;br&gt;Applications" style="text;html=1;align=center;verticalAlign=middle;resizable=0;points=[];autosize=1;strokeColor=none;fillColor=none;" vertex="1" parent="1">
          <mxGeometry x="194" y="5443" width="80" height="30" as="geometry" />
        </mxCell>
      </root>
    </mxGraphModel>
  </diagram>
</mxfile>
